<?xml version="1.0" encoding="iso-8859-1"?>
<!-- Generator: Adobe Illustrator 16.0.0, SVG Export Plug-In . SVG Version: 6.00 Build 0)  -->
<!DOCTYPE svg PUBLIC "-//W3C//DTD SVG 1.1//EN" "http://www.w3.org/Graphics/SVG/1.1/DTD/svg11.dtd">
<svg version="1.1" id="Layer_1" xmlns="http://www.w3.org/2000/svg" xmlns:xlink="http://www.w3.org/1999/xlink" x="0px" y="0px"
	 width="1000px" height="1000px" viewBox="0 0 1000 1000" style="enable-background:new 0 0 1000 1000;" xml:space="preserve">
<g id="Layer_x0020_1">
	<g id="_2279374912">
		<path style="fill:#FEFEFE;" d="M72.711,401.602c5.189,9.514,14.992,21.047,21.119,31.21c4.036,6.775,10.667,15.928,15.568,23.713
			c1.658,2.594,3.387,5.261,5.045,7.711c3.459,5.045,6.702,10.74,10.09,16.074l30.056,48.22c1.659,2.739,3.459,5.333,5.045,8
			c14.488,23.857,30.272,48.652,45.193,72.222c3.531,5.55,6.847,10.235,10.379,15.497l15.712,23.568
			c1.37,2.091,4.18,5.622,5.045,7.641c2.306-0.431,16.217-7.425,19.461-9.009l56.221-28.4c25.01-12.684,50.021-25.586,76.545-36.326
			c41.301-16.65,93.485-32.435,140.334-25.803c10.884,1.513,24.002,4.324,34.31,8c2.378,0.864,8.288,3.531,10.089,3.748
			c-4.685-4.324-8.721-9.01-13.188-13.406l-6.488-6.919c-3.819-3.676-9.369-9.803-12.973-13.84l-9.732-10.379
			c-2.809-3.171-5.911-7.208-9.226-10.595c-5.045-5.045-10.595-12.471-15.783-17.659c-1.153-1.225-1.947-2.451-2.957-3.749
			c-1.08-1.369-2.162-2.162-3.244-3.387l-78.996-90.817c-0.649-0.577-1.009-1.009-1.585-1.73L402.896,377.6
			c-1.297-1.369-2.091-2.162-3.316-3.387l-13.118-13.407c-2.666-3.243-5.045-4.757-6.775-6.631l-6.847-6.559
			c-1.226-1.153-1.946-2.018-3.171-3.244c-7.137-7.135-19.967-16.434-31.499-22.055c-43.173-21.191-87.718-16.506-130.748,0.865
			c-14.127,5.693-32.435,13.911-45.337,21.55c-2.739,1.658-5.693,3.028-8.649,4.758c-5.766,3.387-10.956,6.558-16.506,9.946
			c-5.549,3.459-11.244,6.704-16.504,10.307c-4.469,3.027-46.13,30.057-47.859,31.857H72.711z"/>
		<path style="fill:#FEFEFE;" d="M371.831,338.245c0.793,1.082,2.596,2.596,3.604,3.605c1.226,1.152,2.235,2.377,3.461,3.531
			l14.342,13.911c1.441,1.369,2.019,1.947,3.388,3.604l13.983,14.344c1.37,1.369,1.874,2.378,3.171,3.819
			c2.452,2.812,4.325,4.686,6.992,7.28l4.901,5.694c1.801,2.522,6.054,6.487,8.36,9.298c1.081,1.369,2.018,2.451,3.244,3.748
			l52.473,60.473c1.081,1.297,2.089,2.377,3.243,3.748c3.532,4.181,5.911,7.425,9.875,11.388c0.721,0.722,1.081,1.226,1.657,1.947
			l14.704,16.938c1.154,1.297,2.235,2.667,3.389,3.966l10.018,10.954c1.152,1.225,2.163,2.738,3.244,4.036
			c1.944,2.379,7.929,8.001,10.308,10.668l10.308,10.955c1.152,1.297,2.161,2.45,3.313,3.677l6.774,7.495
			c2.309,2.596,4.614,4.254,7.066,6.92c0.648,0.721,1.226,1.081,2.017,1.656c3.388,2.668,10.019,10.669,12.757,11.822
			c3.461-10.019,3.316-9.587,8.723-18.668c3.891-6.56,13.262-15.93,19.964-21.118c2.598-2.019,5.046-3.748,8.002-5.694
			c49.807-32.434,133.485-44.832,193.096-53.049c10.812-1.513,93.267-11.965,95.716-13.55c-0.935-1.514-5.189-4.253-6.991-5.55
			c-11.746-8-24.145-17.875-36.254-26.092l-14.559-10.379c-4.829-3.604-9.874-6.776-14.632-10.308l-43.824-30.705
			c-10.018-6.559-19.533-13.767-29.551-20.397c-4.902-3.244-9.946-6.776-14.776-10.163c-4.756-3.388-9.802-6.559-14.63-10.019
			c-5.047-3.604-9.802-6.775-14.777-10.234c-4.901-3.388-9.803-6.919-14.776-10.163c-11.892-7.857-24.938-17.515-36.76-25.371
			c-7.422-4.902-14.701-10.452-22.054-15.426c-9.369-6.27-5.119-4.325-18.598-2.233c-25.297,3.892-45.84,3.459-71.5,3.531
			c-16.433,0.073-32.867,0.145-49.3,0.217c-8.002,0-16.939-0.361-24.795,0.144c-25.804,1.658-56.292,8.29-77.7,21.767
			c-2.739,1.73-5.045,3.315-7.352,5.118c-6.992,5.334-7.135,5.478-13.406,11.532c-4.18,4.036-14.92,17.227-16.074,21.046
			L371.831,338.245z"/>
		<path style="fill:#302F2F;" d="M269.771,709.084l14.198-8.29c4.829-2.811,9.515-5.55,14.56-8.288
			c9.802-5.405,19.46-11.028,29.624-16.361c33.443-17.37,56.797-29.84,92.402-44.832c31.643-13.334,74.744-28.975,109.772-28.831
			c3.101,0,10.885-0.144,13.119,1.081c-49.083,6.486-102.349,22.056-147.325,42.309c-5.551,2.523-11.028,4.757-16.363,7.353
			l-109.988,55.788V709.084z M236.11,726.815l0.215-3.821c2.595-1.153,5.91-3.46,8.433-5.046c2.956-1.802,5.623-3.387,8.578-5.116
			c16.938-10.09,34.669-20.687,51.967-30.2c53.338-29.408,130.965-70.491,191.727-81.521c8.071-1.439,16.36-2.521,24.868-2.738
			c6.413-0.145,12.828,0.144,19.172,1.368l4.25,0.866c1.804,0.648,0.724,0.144,1.227,0.865c-1.227,0.938-0.359,0-0.503,0.938
			c-12.833-3.533-36.328-0.217-49.159,2.378c-61.048,12.253-135.792,51.823-191.22,82.096
			c-16.938,9.297-35.318,20.037-52.111,30.056c-5.479,3.244-11.533,7.353-17.371,9.876H236.11z M236.398,721.049l0.144-4.036
			c3.46-2.595,66.095-37.913,69.627-39.933c23.353-13.261,47.066-25.803,71.573-38.272c23.857-12.107,49.949-23.93,76.978-32.867
			c21.479-7.063,46.85-12.83,70.275-11.604c12.613,0.648,13.477,1.658,24.217,3.462c-0.505,1.513-0.936,1.008-1.513,2.161
			c-12.901-4.975-35.389-3.171-49.517-0.722c-50.887,9.011-111.287,38.058-157.056,61.986
			c-27.822,14.56-60.544,33.156-87.429,49.518c-2.308,1.369-15.929,9.946-17.371,10.234L236.398,721.049z M236.542,715.066v-6.199
			l17.227-9.875c59.968-33.947,137.883-78.492,202.753-97.304c22.92-6.631,46.994-11.244,71.571-9.658
			c6.128,0.36,12.037,1.153,18.021,2.378c0.936,0.217,1.803,0.36,2.739,0.576l2.161,0.578c0.648,0.432,0-0.218,0.505,0.503
			l-0.937,0.361c-0.577,0.072-0.864,0-1.44-0.217c-6.849-1.729-13.551-2.811-20.687-3.315
			c-50.166-3.459-106.891,22.272-149.416,43.463c-12.254,6.055-24.363,12.326-36.255,18.812c-5.983,3.315-11.893,6.415-17.947,9.73
			c-27.102,14.702-52.689,29.911-79.212,44.904c-2.452,1.441-6.56,4.18-9.01,5.116L236.542,715.066z M236.686,707.064l0.072-4.322
			c0.577-1.588,62.995-35.752,69.411-38.995c11.965-6.054,23.569-12.542,35.75-18.453c55.932-27.028,145.812-69.122,212.412-52.038
			c-1.298,1.658-1.368,1.08-4.613,0.359c-14.345-3.243-29.552-4.18-44.183-2.954c-44.69,3.82-86.782,21.694-125.704,39.498
			c-12.614,5.767-24.362,12.108-36.688,18.091c-9.586,4.612-26.308,13.768-35.966,19.101
			c-21.263,11.677-40.796,22.921-61.554,34.669C243.389,703.317,238.848,706.272,236.686,707.064z M236.83,700.507l0.145-4.469
			c9.083-5.551,24.795-14.344,34.453-19.606c11.605-6.27,23.281-12.612,35.246-18.956c56.796-29.84,135.361-65.806,201.023-70.347
			c8.794-0.649,17.732-0.649,26.453-0.072c4.18,0.288,8.216,0.721,12.396,1.37c1.946,0.288,3.819,0.576,5.692,0.938l4.256,0.863
			c1.943,0.576,0.791,0.072,1.296,0.793c-2.091,0.361,0.288,1.515-4.827,0.361c-5.48-1.297-12.328-2.307-17.95-2.74
			c-51.102-4.396-109.484,16.435-154.028,36.472c-25.371,11.461-49.805,23.209-73.518,36.038l-35.462,19.317
			c-3.171,1.729-33.66,19.39-35.39,19.966L236.83,700.507z M237.047,694.38c-0.217-5.334-0.577-4.108,5.91-7.784
			c21.334-12.109,40.435-22.561,62.418-34.093c11.893-6.271,24.507-12.325,36.975-18.163
			c50.454-23.643,112.658-47.644,169.599-50.743c14.993-0.792,37.335,0.072,50.887,4.181c-1.153,1.369-2.596,1.874-4.398,1.441
			c-68.184-16.288-153.883,19.749-213.348,47.571c-30.633,14.344-69.41,35.174-99.105,52.399c-1.802,1.082-7.785,4.182-8.793,5.19
			H237.047z M237.335,688.11l-0.073-4.759l35.174-19.604c36.687-19.245,72.509-37.913,111.719-52.616
			c26.885-10.092,54.275-19.388,84.403-25.155c24.723-4.686,50.309-7.208,75.753-4.542c3.893,0.434,21.408,2.668,23.281,4.324
			c-2.45,0.29-0.863,1.515-5.189,0.435c-56.437-13.91-127.29,8.073-177.743,28.181c-33.66,13.479-78.997,35.535-111.936,53.915
			c-5.981,3.314-11.964,6.631-17.803,9.874c-5.982,3.315-11.749,6.776-17.515,10.019L237.335,688.11z M237.406,681.621l-0.071-3.892
			c1.946-1.585,32.795-18.523,35.606-20.11c69.555-38.056,170.606-84.979,251.549-82.166c18.094,0.648,31.784,3.314,47.715,8.144
			l-0.864,0.505c-1.947,0.793-6.632-0.865-9.947-1.515c-4.037-0.864-7.928-1.44-12.038-2.017
			c-25.226-3.387-52.183-1.369-76.688,3.172c-56.22,10.306-113.234,34.163-163.183,59.03
			c-20.758,10.307-43.103,22.198-63.212,33.804C243.389,678.234,240.29,680.18,237.406,681.621z M237.551,675.713v-5.118
			c1.658-1.587,33.588-19.1,36.183-20.47c76.691-41.085,196.556-98.314,283.047-75.969c5.261,1.368,17.372,5.188,20.902,7.639
			l-0.359,0.145c-2.523,1.009-2.523,1.009-4.613,0.286c-28.83-10.161-64.869-9.801-94.277-5.188
			c-31.786,4.973-60.834,13.982-88.799,24.361c-49.228,18.309-97.52,43.391-143.001,69.122c-2.594,1.514-6.559,4.109-9.153,5.118
			L237.551,675.713z M237.768,668.432v-7.208c2.739-1.729,6.631-3.171,9.802-4.757c3.388-1.657,6.487-3.243,9.875-4.757
			c6.703-3.099,12.83-6.416,19.461-9.729l28.975-14.921c13.334-6.92,35.894-18.523,48.796-24.217l20.11-9.156
			c20.831-9.226,41.661-17.441,64.077-23.567c48.652-13.406,89.447-15.138,135.937,4.613c1.875,0.792,6.702,2.955,8.506,4.253
			l1.008,0.864c-4.036,2.376-6.055,0.215-10.379-1.514c-55.787-22.85-127.648-4.83-180.264,14.774
			c-40.436,15.065-81.231,34.238-118.568,54.563l-37.191,20.686L237.768,668.432z M633.688,579.416
			c1.081-1.946,11.172-8,12.901-8.938c33.589-19.46,79.212-29.19,117.701-34.236c26.238-3.388,52.4-5.838,79.357-7.425
			c28.254-1.656,56.149-1.945,84.618-2.81c0.434,1.153,1.875,5.262,1.732,6.775c-28.328,0.576-57.301-0.073-85.629-0.216
			c-25.37-0.146-56.292,1.513-81.303,4.973c-33.372,4.54-56.148,10.163-85.628,21.768c-5.262,2.09-9.946,4.324-14.992,6.631
			c-4.827,2.234-9.515,4.613-14.344,7.279l-10.162,5.91c-1.585,0.865-2.667,0.217-4.253,0.217V579.416z M630.373,578.407
			c2.089-4.108,20.684-15.208,26.164-18.091c9.44-4.901,20.396-9.298,31.352-12.758c22.777-7.28,47.428-12.182,72.511-15.712
			c41.156-5.768,81.519-8.001,123.182-9.3c7.062-0.215,14.195-0.359,21.334-0.505c6.848-0.144,15.497,0.218,22.055-0.432
			l0.575,2.956c-55.139,0.576-111.789,3.026-165.198,10.451c-40.51,5.621-90.961,16.145-125.057,39.569
			c-3.531,2.451-4.756,4.253-6.991,3.82H630.373z M626.625,577.614l5.98-5.55c16.362-13.047,29.48-20.759,50.093-28.688
			c52.977-20.396,139.76-24.217,198.72-26.523c9.945-0.36,35.315-1.802,43.535-1.586c0.071,0.073,0.071,0.073,0.144,0.217
			c0,0,1.01,3.027,1.152,4.757c-72.222,0.433-172.697,4.252-241.171,26.669c-17.803,5.839-37.48,14.775-51.605,26.596
			C629.939,576.461,629.146,578.19,626.625,577.614z M623.522,577.111c6.271-6.344,18.165-14.921,26.022-19.751
			c9.441-5.838,19.678-11.1,30.704-15.567c22.776-9.226,46.562-14.85,72.726-19.461c38.059-6.775,86.565-10.092,126.351-12.038
			c7.857-0.36,38.852-2.089,44.33-1.729c0.431,1.586,1.079,3.388,0.936,5.262c-57.083,2.09-115.468,3.676-170.967,11.243
			c-42.165,5.767-84.259,16.65-117.343,42.237c-2.161,1.658-4.036,3.172-6.197,5.046l-4.541,4.036
			c-0.648,0.723-0.721,1.081-2.091,0.795L623.522,577.111z M619.991,576.822c3.174-4.182,22.273-17.372,26.743-20.109
			c9.369-5.912,20.11-11.461,31.137-16.074c22.56-9.441,46.848-16.289,72.942-21.334c51.752-10.091,107.61-13.623,160.731-15.857
			c2.596-0.144,8.867-0.648,11.101-0.288c0.431,1.657,0.431,2.306,0.721,3.892c-49.95,0.937-123.902,5.838-172.48,14.199
			c-41.59,7.137-84.837,19.822-117.486,45.554l-9.515,7.854c-1.296,1.226-1.73,2.453-3.894,2.235V576.822z M615.955,576.606
			c0.939-1.73,11.604-9.803,13.048-10.884c33.731-25.66,76.905-40.076,118.854-49.445c45.411-10.164,102.781-15.424,150.644-17.66
			c6.991-0.359,16.359-1.297,23.136-0.936c0.576,1.153,0.648,2.306,0.648,3.675c-1.37,0.36-19.677,0.865-22.778,1.01
			c-50.884,2.522-100.978,5.91-150.928,15.784c-37.408,7.353-73.52,18.741-104.513,38.49c-10.236,6.486-15.208,10.595-23.784,17.875
			c-1.227,1.009-1.875,2.161-4.253,2.017L615.955,576.606z M610.911,576.532c1.299-1.656,4.613-4.18,6.416-5.693
			c2.305-1.874,4.395-3.604,6.991-5.478c36.183-26.669,75.321-41.371,120.438-52.111c47.501-11.244,103.071-17.155,152.806-19.678
			l21.91-1.009c0.362,0,0.505,0,0.865,0.072c0.938,0.145,1.082,0.36,1.082,3.316c-1.298,0.577-41.013,2.233-46.417,2.522
			c-14.991,0.937-30.273,2.161-45.122,3.748c-28.759,3.027-57.229,6.992-84.547,13.119c-43.822,9.874-92.833,27.028-126.566,56.651
			c-1.01,0.938-2.235,1.874-3.317,2.812c-1.944,1.585-1.079,2.019-4.612,1.803L610.911,576.532z M606.297,576.966
			c1.658-3.315,23.426-19.028,28.256-22.128c56.724-36.326,124.691-52.039,192.014-60.616c25.082-3.172,69.123-7.064,93.917-7.28
			c0.071,1.585,0.289,2.378,0.289,4.036c-55.429,1.298-125.417,8.434-178.752,21.263c-44.688,10.74-85.7,26.524-121.162,53.77
			c-2.306,1.803-4.76,3.75-6.848,5.623c-4.181,3.676-3.75,4.182-7.641,5.261L606.297,576.966z M601.902,577.111
			c6.629-7.352,19.242-17.804,27.605-23.643c33.081-23.137,66.599-36.254,107.466-47.428c51.031-13.91,115.54-21.045,170.031-23.497
			c3.963-0.144,8.937-0.648,12.757-0.432c0.073,0.072,0.073,0.145,0.073,0.288c0.072,0.576,0.358,0.865,0.287,2.884
			c-1.585,0.648-20.83,1.152-24.433,1.369c-7.93,0.432-15.859,0.936-23.859,1.585c-86.854,6.919-195.4,25.299-262.36,83.682
			l-5.118,4.611c-0.865,0.795-0.938,0.722-2.523,0.722L601.902,577.111z M596.642,577.688c0.791-1.299,1.944-2.452,2.883-3.46
			c17.224-19.246,32.29-30.199,56.22-43.607c22.704-12.685,50.958-22.488,76.472-29.695
			c56.727-16.001,124.551-22.994,187.187-25.083c0.359,1.657,0.433,2.739,0.288,4.469c-1.37,0.504-21.479,1.081-24.868,1.297
			c-89.52,5.262-206.357,21.119-276.415,78.347c-2.595,2.092-4.613,3.965-7.064,5.983c-1.225,1.008-2.234,2.017-3.388,3.026
			c-1.368,1.154-2.088,2.019-3.387,3.317C600.102,576.677,600.244,577.688,596.642,577.688z M593.468,578.047
			c-0.071-2.09,2.379-8.218,3.243-10.234c2.739-6.343,6.56-11.533,10.741-16.65l14.197-13.19
			c7.209-5.694,16.794-11.315,25.372-15.425c49.734-23.712,120.369-34.669,176.23-42.236c23.568-3.171,49.011-6.271,72.438-9.802
			c3.746-0.578,21.263-3.677,23.497-3.459l0.07,7.279c-17.153,0.865-33.948,1.585-50.958,2.883
			c-72.51,5.406-152.01,19.245-215.295,53.121c-22.271,11.892-40.218,26.164-56.22,44.544c-1.01,1.153-1.729,3.027-3.459,3.027
			L593.468,578.047z M230.92,716.508c0,2.162-0.289,4.613-0.433,6.775c-1.081-0.794-4.757-6.92-5.838-8.434
			c-2.019-2.811-3.748-5.622-5.694-8.577c-18.957-28.47-38.705-57.085-56.652-86.133c-7.28-11.821-14.92-22.848-22.2-34.741
			c-1.875-3.026-3.676-5.982-5.549-8.722l-11.1-17.514c-8.65-14.271-18.812-29.264-27.678-43.534l-33.66-51.824
			c-1.946-2.956-3.675-5.838-5.622-8.649c-1.009-1.37-5.406-7.063-4.829-8.505c1.082,0.937,44.976,67.248,45.697,68.329
			c7.712,11.604,15.137,22.776,22.848,34.309l102.638,153.957c1.297,1.945,8.073,11.173,8.145,13.189L230.92,716.508z
			 M231.353,735.176c2.883-0.578,15.857-7.568,19.245-9.37l18.812-9.803c3.027-1.514,6.055-3.316,9.154-4.829
			c3.099-1.586,6.343-3.317,9.297-4.974c6.054-3.458,12.614-6.342,18.741-9.874c11.964-6.991,25.082-12.975,37.48-19.461
			c12.685-6.632,25.299-12.613,38.488-18.667c12.326-5.695,27.173-11.967,39.858-17.012c13.767-5.55,27.606-9.946,42.309-14.632
			c20.47-6.558,53.195-14.056,75.682-16.793c12.469-1.514,4.974,0.287,13.405-8.216c14.705-14.85,43.536-20.183,65.952-19.102
			c4.322,0.216,8.504,0.792,12.18,2.09c6.271,2.233,3.101,3.027,9.298-0.792c22.56-13.982,54.779-26.74,81.158-33.013
			c15.568-3.748,31.644-6.559,48.22-8.577c8.722-1.08,17.156-1.729,26.021-2.378c4.541-0.36,9.151-0.288,13.693-0.576
			c4.613-0.289,8.939-0.721,13.695-0.721c37.984,0,75.897,0.721,113.81-0.217c-0.361-2.522-4.253-13.623-5.261-17.227
			c-1.586-5.405-3.676-13.119-4.252-18.812c1.152,0.794,3.604,4.758,4.396,5.983c4.182,6.414,7.786,11.243,12.18,18.235
			c1.588,2.595,14.201,22.848,15.138,25.517c-5.262,0.357-22.848,0.287-29.119,0.287c-28.615,0.07-57.301,0.505-85.842,1.945
			c-9.012,0.434-17.949,1.442-26.886,2.235c-8.939,0.792-17.805,1.585-26.525,2.666c-38.346,4.758-82.529,12.83-117.269,29.192
			c-3.46,1.584-6.56,3.242-9.226,5.332c-2.812,2.234-5.335,4.47-8.363,6.56c-24.075,16.506-55.643,24.434-90.744,26.596
			c-9.154,0.578-19.316,0.36-28.613,0.434c-10.451,0.071-15.139,1.297-25.373,3.748c-15.786,3.893-30.705,8.217-45.769,13.045
			c-29.695,9.515-57.878,20.038-85.196,31.931c-6.846,2.957-13.262,6.128-20.109,9.081c-6.704,2.884-13.694,5.911-20.108,9.082
			c-6.56,3.245-13.336,5.983-19.894,9.299c-6.487,3.315-13.406,6.343-19.821,9.729c-3.316,1.73-6.415,3.173-9.73,4.902
			c-9.442,4.973-20.109,9.729-29.408,14.703c-6.415,3.388-12.829,6.343-19.46,9.731c-3.316,1.658-6.343,3.171-9.73,4.9
			l-10.092,4.975l-12.397-18.886c-8.505-12.396-16.577-25.658-24.794-37.912l-33.516-52.616
			c-17.37-27.029-33.949-55.355-51.03-82.529c-3.965-6.342-8.145-12.9-11.893-19.461c-7.136-12.47-16.145-26.02-23.713-38.993
			c-1.945-3.389-3.892-6.199-5.839-9.658c-5.549-9.875-12.18-19.389-17.803-29.335c-2.378-4.109-6.055-7.568-4.469-10.452
			c1.009-1.802,6.198-6.271,8.65-7.135c0.289,4.18-2.162,1.945,3.82,10.162c2.09,2.811,4.036,5.839,6.054,8.865
			c3.965,6.127,7.641,12.47,11.749,18.092c3.749,5.19,7.785,12.253,11.676,18.092c5.839,8.649,11.605,18.307,17.371,27.028
			c9.442,14.343,19.604,30.85,28.975,45.554c3.893,6.126,7.712,11.964,11.532,18.235c7.568,12.396,15.569,23.712,23.065,36.254
			c1.945,3.316,3.891,5.839,5.837,9.082c1.874,3.172,4.037,5.839,5.911,9.011c7.208,11.891,15.785,24.434,23.497,36.109
			c3.964,5.983,7.856,12.109,11.893,17.948l24.074,35.533L231.353,735.176z M52.457,441.75l45.625,66.456
			c3.82,5.478,7.64,10.955,11.388,16.649c7.136,10.738,15.641,22.56,22.921,33.371l34.381,50.237
			c7.784,11.245,15.064,22.272,22.92,33.373c7.712,11.026,15.208,22.343,22.921,33.372c3.892,5.551,7.496,11.1,11.388,16.577
			c1.946,2.739,3.675,5.477,5.694,8.289c2.163,3.099,1.874,3.243,1.658,9.08c0,0.938,0,2.524-0.36,3.244
			c-1.009-0.937-21.119-31.425-22.489-33.514L53.826,446.795c-1.298-1.947-2.162-2.235-1.298-5.191L52.457,441.75z M53.394,436.343
			l22.633,32.435c7.496,10.883,15.063,21.838,22.705,32.724c15.208,21.767,30.056,43.462,45.264,65.229
			c18.812,26.955,37.985,54.273,56.507,81.375c3.75,5.478,7.497,10.956,11.389,16.361l16.938,24.435
			c0.721,1.082,2.522,3.171,2.739,4.324c0.433,2.233-0.361,4.757,0.144,6.775c-1.226-0.866-9.802-13.84-11.46-16.218
			c-3.821-5.55-7.568-10.885-11.244-16.434c-6.631-10.162-15.497-22.561-22.489-32.867c-7.135-10.523-15.712-22.415-22.56-32.867
			c-7.352-11.172-15.208-21.695-22.488-32.866c-7.063-10.74-15.208-22.056-22.488-32.868l-61.915-90.24
			c-4.109-5.982-4.542-5.189-3.532-9.226L53.394,436.343z M54.979,429.424l0.794,0.792c0.359,0.433,0.432,0.649,0.72,1.082
			c0.433,0.648,0.937,1.37,1.369,2.018c0.938,1.442,1.802,2.523,2.739,3.965l39.066,56.796
			c15.064,21.479,29.479,43.247,44.472,64.726c15.063,21.623,29.407,43.174,44.543,64.727c7.496,10.665,14.631,21.55,22.2,32.29
			c6.343,9.081,13.19,19.604,19.46,28.325c1.946,2.668,0.721,2.595,1.226,5.84c-1.009-0.649-43.463-62.203-45.193-64.727
			c-7.351-10.812-14.775-21.479-22.416-32.363c-15.063-21.407-29.983-43.391-44.976-64.869
			c-7.641-10.885-15.137-21.694-22.56-32.507c-12.975-18.884-26.452-37.695-39.283-56.581c-0.864-1.297-2.089-2.739-2.882-4.108
			C53.61,433.749,54.331,430.866,54.979,429.424z M56.782,422.505c1.658,1.513,62.418,91.033,66.239,96.584l44.11,64.508
			c14.92,21.335,29.408,43.319,44.256,64.726l19.317,28.183c1.441,2.09,0.576,3.604,0.937,6.415
			c-1.513-1.299-44.039-63.717-44.833-64.797c-7.496-10.74-14.703-21.48-22.199-32.291c-14.849-21.552-29.552-43.391-44.544-64.726
			c-18.668-26.597-37.119-54.49-55.787-81.159c-1.874-2.667-3.677-5.334-5.55-8.145C54.908,426.324,55.052,428.054,56.782,422.505z
			 M59.521,415.585c1.081,0.72,57.59,85.7,64.941,96.583c7.28,10.812,14.343,21.406,21.624,32.217
			c14.415,21.553,28.687,42.887,43.246,64.512l40.579,60.472c1.297,1.945,1.874,2.307,1.587,5.404
			c-1.154-1.079-9.587-13.766-11.101-15.999c-10.596-16.002-22.272-32.292-33.155-48.438c-3.676-5.405-7.353-10.596-11.028-16.071
			c-3.532-5.335-7.28-10.812-11.028-16.075c-7.496-10.812-14.704-21.478-22.127-32.361c-14.704-21.552-29.48-42.887-44.112-64.509
			c-7.352-10.812-14.703-21.623-22.128-32.363c-0.864-1.226-19.027-27.534-19.172-28.327
			C57.502,419.622,58.872,416.522,59.521,415.585z M63.485,408.45c1.513,1.585,148.334,223.368,165.921,250.108
			c0.721,1.081,2.378,3.1,2.522,4.107c0.361,2.163-0.504,4.47-0.071,6.56c-1.514-1.081-61.482-91.249-65.663-97.52
			c-7.28-10.812-14.632-21.623-21.839-32.58c-7.208-10.883-14.415-21.623-21.695-32.435l-60.112-89.663
			c-0.937-1.442-2.451-2.74-1.802-4.253C61.25,411.621,62.691,409.242,63.485,408.45z M64.566,406.937
			c0.792-1.154,1.585-1.875,2.883-2.235c2.379,2.307,43.607,65.158,46.779,69.915l15.136,23.786
			c2.522,3.964,4.757,7.929,7.279,11.892c2.523,3.966,4.974,8.073,7.497,11.966c12.468,19.39,24.65,40.507,37.264,60.112
			c1.225,1.946,2.522,4.037,3.748,5.981c0.865,1.37,3.244,4.83,3.676,6.128c-2.452-4.396-11.821-17.659-15.569-23.498
			c-2.522-3.964-5.117-7.712-7.784-11.676L80.062,430.504C76.892,425.676,66.728,410.827,64.566,406.937z M72.567,401.458
			c1.729-1.801,43.391-28.83,47.859-31.857c5.261-3.604,10.882-6.848,16.504-10.308c5.55-3.459,10.74-6.559,16.506-9.946
			c2.956-1.73,5.839-3.1,8.649-4.757c12.902-7.641,31.21-15.857,45.337-21.551c43.03-17.371,87.574-22.055,130.748-0.865
			c11.461,5.622,24.362,14.92,31.499,22.055c1.225,1.226,1.945,2.091,3.171,3.244l6.847,6.559c1.73,1.874,4.109,3.315,6.775,6.631
			l13.118,13.407c1.153,1.225,1.947,2.018,3.316,3.387l15.857,17.588c0.577,0.72,0.937,1.153,1.585,1.73l78.996,90.816
			c1.155,1.299,2.164,2.019,3.244,3.388c1.01,1.298,1.804,2.522,2.957,3.749c5.188,5.189,10.812,12.614,15.783,17.659
			c3.314,3.388,6.343,7.425,9.226,10.596l9.732,10.379c3.604,3.965,9.153,10.164,12.973,13.84l6.488,6.919
			c4.395,4.469,8.503,9.081,13.188,13.406c-1.801-0.289-7.639-2.884-10.089-3.75c-10.235-3.674-23.426-6.414-34.31-7.999
			c-46.85-6.633-99.033,9.082-140.334,25.803c-26.523,10.739-51.607,23.643-76.545,36.327l-56.221,28.399
			c-3.244,1.585-17.155,8.576-19.461,9.01c-0.865-2.02-3.676-5.551-5.045-7.641l-15.712-23.57
			c-3.46-5.262-6.848-9.945-10.379-15.495c-14.993-23.568-30.705-48.436-45.193-72.222c-1.586-2.666-3.387-5.263-5.045-8
			l-30.056-48.22c-3.459-5.262-6.631-10.956-10.09-16.074c-1.658-2.45-3.387-5.118-5.045-7.711
			c-4.901-7.713-11.532-16.938-15.568-23.713c-6.127-10.163-15.929-21.695-21.119-31.21H72.567z M371.759,338.174
			c1.153-3.748,11.893-17.01,16.074-21.046c6.27-6.054,6.415-6.2,13.406-11.532c2.308-1.802,4.685-3.388,7.352-5.118
			c21.407-13.55,51.896-20.11,77.699-21.767c7.856-0.505,16.867-0.146,24.795-0.146c16.433-0.072,32.866-0.143,49.302-0.216
			c25.657-0.144,46.2,0.361,71.5-3.532c13.476-2.089,9.226-4.108,18.594,2.235c7.353,4.974,14.632,10.451,22.057,15.424
			c11.82,7.856,24.795,17.515,36.759,25.372c4.974,3.243,9.874,6.775,14.775,10.163c4.975,3.387,9.731,6.631,14.776,10.233
			c4.828,3.389,9.875,6.633,14.633,10.02c4.829,3.388,9.802,6.992,14.775,10.164c10.019,6.631,19.533,13.838,29.552,20.397
			l43.821,30.705c4.759,3.532,9.805,6.703,14.632,10.307l14.562,10.379c12.108,8.289,24.505,18.092,36.254,26.092
			c1.875,1.225,6.055,4.036,6.993,5.551c-2.454,1.585-84.909,12.036-95.721,13.55c-59.681,8.217-143.36,20.686-193.094,53.048
			c-2.956,1.947-5.406,3.677-8,5.694c-6.704,5.19-16.074,14.561-19.966,21.119c-5.336,9.083-5.262,8.649-8.723,18.669
			c-2.738-1.154-9.37-9.155-12.759-11.821c-0.791-0.577-1.296-0.936-2.016-1.657c-2.451-2.74-4.759-4.397-7.062-6.92l-6.776-7.496
			c-1.225-1.298-2.163-2.378-3.316-3.676l-10.308-10.956c-2.449-2.667-8.36-8.289-10.307-10.668c-1.08-1.297-2.162-2.81-3.243-4.036
			l-10.02-10.955c-1.081-1.297-2.234-2.668-3.388-3.965l-14.702-16.938c-0.649-0.721-1.01-1.297-1.658-1.946
			c-3.965-4.036-6.416-7.208-9.875-11.389c-1.152-1.369-2.089-2.45-3.243-3.748l-52.472-60.473c-1.226-1.297-2.163-2.45-3.244-3.748
			c-2.305-2.812-6.558-6.775-8.36-9.298l-4.901-5.693c-2.739-2.596-4.542-4.397-6.992-7.28c-1.297-1.514-1.801-2.451-3.171-3.821
			l-13.983-14.342c-1.37-1.658-1.947-2.308-3.387-3.604l-14.344-13.912c-1.226-1.153-2.235-2.379-3.46-3.532
			c-1.082-1.009-2.883-2.522-3.604-3.604L371.759,338.174z M30.618,452.776v2.523c1.946,2.595,3.819,6.343,5.766,9.514
			l14.344,24.002c1.009,1.729,1.874,3.315,2.955,4.973c5.694,8.578,11.46,19.75,17.443,28.758
			c3.027,4.542,8.505,14.127,11.532,19.173c1.874,3.101,3.893,6.631,5.839,9.658l4.468,7.064c0.504,0.792,1.008,1.658,1.513,2.45
			c1.009,1.658,1.947,3.315,2.883,4.758c3.965,5.982,7.712,12.757,11.749,18.955c4.686,7.064,10.162,16.723,14.848,24.074
			c5.838,9.082,11.82,19.388,17.659,28.615c2.09,3.243,4.109,6.631,5.91,9.585l20.903,33.013c0.504,0.866,1.009,1.585,1.585,2.379
			l10.451,16.359c1.009,1.587,2.091,3.317,3.1,4.83c5.189,7.713,11.316,18.164,16.65,25.66l13.983,21.047
			c0.577,0.793,0.936,1.44,1.441,2.163l4.901,7.062h0.865l89.232-44.616c9.226-4.324,21.551-10.668,30.2-14.488l30.705-14.055
			c1.874-0.792,3.315-1.44,5.045-2.235c1.947-0.864,3.459-1.439,5.334-2.305c7.062-3.1,13.766-5.693,20.83-8.722
			c9.804-4.108,21.985-8.649,32.219-12.542c16.289-6.27,39.282-13.693,56.22-18.308c7.785-2.09,15.642-4.18,23.714-6.125
			c26.093-6.272,17.658-2.092,40.218-3.317c25.951-1.44,51.537-3.676,75.971-13.188c9.371-3.604,21.551-9.443,29.408-15.353
			l8.359-6.56c1.586-1.01,3.174-1.874,4.685-2.666c22.994-11.822,48.582-17.948,73.881-23.209
			c26.738-5.478,51.823-8.073,78.924-10.597c9.154-0.864,18.956-1.082,27.822-1.945c12.469-1.226,45.697-1.73,58.022-1.73
			c9.226,0,20.036-0.648,28.975-0.288L970,557.433v-0.864c-1.226-1.44-18.813-31.281-21.696-35.823
			c-1.226-1.874-2.593-3.892-3.746-5.693c-3.03-4.758-12.182-18.308-15.715-22.632c-2.45-3.027-2.233-2.451-2.664-7.063
			c-0.506-5.983-0.649-11.965-1.226-17.948c-0.362-3.676,0.358-5.333-2.308-7.063l-83.683-60.256
			c-2.018-1.585-3.531-2.45-5.837-3.964c-2.163-1.442-3.677-2.667-5.694-4.037l-33.948-23.569
			c-4.254-2.955-6.849-4.541-11.317-7.857c-1.802-1.369-3.819-2.45-5.622-3.82l-5.694-4.036c-3.819-2.378-7.641-5.406-11.387-7.784
			l-28.398-19.677c-5.191-3.748-11.244-7.425-17.155-11.749c-8.289-6.054-20.183-13.334-28.327-19.389
			c-5.476-4.107-11.747-8-17.009-11.964c-2.956-2.235-21.552-14.488-22.562-16.073h-1.586c-3.603,2.018-31.425,4.901-38.056,5.262
			c-3.314,0.145-7.136,0.145-10.379,0.433c-3.314,0.289-7.137-0.072-10.381,0.215c-5.477,0.505-15.783,0.217-21.189-0.144
			c-6.631-0.432-14.774,0-21.623,0c-21.334,0-42.381-0.288-63.284,1.442c-26.885,2.163-58.166,10.091-78.203,24.795l-14.849,11.965
			c-1.874,1.874-3.604,3.604-5.478,5.478c-1.082,1.082-1.441,1.874-2.45,3.027l-4.757,5.91c-3.1,3.893-4.901,7.137-6.559,9.299
			l-9.658-6.775c-1.658-1.082-3.244-2.234-4.901-3.315s-3.027-2.018-4.83-3.1c-26.091-15.208-56.292-20.902-86.276-17.659
			c-20.11,2.162-39.209,8.001-57.877,15.208c-3.965,1.514-7.568,3.244-11.389,4.83l-21.911,10.307
			c-12.614,6.847-26.524,14.632-38.634,22.2l-22.199,14.343c-3.387,2.163-6.56,4.036-9.73,6.343
			c-1.513,1.153-3.46,2.235-4.973,3.171c-1.658,1.009-3.244,2.09-4.757,3.171c-1.658,1.225-3.027,1.945-4.974,3.243
			c-1.659,1.154-3.171,2.09-4.901,3.315c-0.793,0.578-1.802,1.155-2.595,1.659c-0.866,0.577-1.441,1.082-2.307,1.657l-9.803,6.343
			c-3.243,1.802-6.126,4.829-8.073,8C52.961,414,50.366,422,48.637,430.504c-0.289,1.442-0.792,5.55-1.369,6.56
			c-0.649,1.225-6.343,3.027-9.804,6.343c-7.567,7.208-4.251,5.333-6.775,9.154L30.618,452.776z"/>
		<path style="fill:#FEFEFE;" d="M207.351,699.713c-3.964-5.838-7.856-11.964-11.893-17.946
			c-7.785-11.75-16.29-24.291-23.497-36.111c-1.946-3.172-4.037-5.838-5.911-9.01c-1.946-3.244-3.892-5.765-5.837-9.081
			c-7.497-12.542-15.498-23.857-23.065-36.256c-3.892-6.269-7.64-12.107-11.532-18.234c-9.371-14.706-19.533-31.281-28.975-45.554
			c-5.766-8.793-11.532-18.38-17.371-27.029c-3.892-5.838-7.928-12.902-11.676-18.091c-4.036-5.622-7.784-11.965-11.749-18.091
			c-1.946-3.027-3.964-6.054-6.054-8.866c-5.982-8.216-3.531-5.983-3.82-10.163c-2.452,0.865-7.641,5.333-8.65,7.136
			c-1.586,2.882,2.09,6.342,4.469,10.451c5.623,9.946,12.253,19.46,17.803,29.334c1.947,3.459,3.821,6.342,5.839,9.659
			c7.568,12.974,16.506,26.525,23.713,38.994c3.748,6.559,7.856,13.117,11.893,19.461c17.082,27.174,33.66,55.5,51.03,82.528
			l33.516,52.615c8.217,12.254,16.289,25.444,24.794,37.913l12.397,18.885l10.092-4.973c3.388-1.658,6.415-3.171,9.73-4.902
			c6.631-3.387,13.045-6.342,19.46-9.729c9.299-4.902,19.966-9.73,29.408-14.705c3.316-1.729,6.415-3.171,9.73-4.9
			c6.415-3.387,13.334-6.415,19.821-9.73c6.558-3.315,13.334-6.056,19.894-9.298c6.414-3.243,13.405-6.198,20.108-9.081
			c6.848-2.956,13.334-6.128,20.109-9.083c27.317-11.893,55.5-22.416,85.196-31.93c15.064-4.829,29.912-9.154,45.769-13.045
			c10.234-2.524,14.992-3.75,25.373-3.75c9.297-0.071,19.531,0.145,28.613-0.431c35.102-2.163,66.599-10.092,90.744-26.598
			c3.028-2.089,5.551-4.324,8.363-6.559c2.739-2.162,5.837-3.747,9.226-5.333c34.813-16.362,78.923-24.437,117.269-29.193
			c8.721-1.08,17.586-1.873,26.525-2.666c8.937-0.793,17.874-1.802,26.886-2.233c28.541-1.515,57.227-1.874,85.842-1.946
			c6.271,0,23.857,0.072,29.119-0.289c-0.937-2.595-13.479-22.921-15.138-25.516c-4.394-7.062-7.998-11.82-12.18-18.235
			c-0.792-1.225-3.243-5.189-4.396-5.981c0.576,5.693,2.666,13.406,4.252,18.811c1.082,3.605,4.974,14.632,5.261,17.228
			c-37.912,1.01-75.897,0.216-113.81,0.216c-4.827,0-9.082,0.434-13.695,0.721c-4.542,0.289-9.152,0.289-13.693,0.576
			c-8.865,0.648-17.3,1.298-26.021,2.379c-16.576,2.091-32.651,4.83-48.22,8.578c-26.307,6.271-58.599,19.028-81.158,33.011
			c-6.197,3.821-3.026,3.099-9.298,0.792c-3.676-1.296-7.857-1.874-12.18-2.089c-22.488-1.082-51.247,4.252-65.952,19.101
			c-8.432,8.504-1.01,6.703-13.405,8.217c-22.487,2.738-55.139,10.233-75.682,16.793c-14.703,4.686-28.542,9.154-42.309,14.632
			c-12.758,5.117-27.533,11.317-39.858,17.011c-13.189,6.127-25.876,12.108-38.488,18.668c-12.326,6.414-25.516,12.47-37.48,19.461
			c-6.056,3.532-12.687,6.488-18.741,9.875c-2.954,1.658-6.198,3.387-9.297,4.973c-3.1,1.585-6.127,3.316-9.154,4.829l-18.812,9.803
			c-3.387,1.802-16.362,8.794-19.245,9.37l-24.074-35.533L207.351,699.713z"/>
		<path style="fill:#FEFEFE;" d="M275.031,647.745c37.336-20.325,78.132-39.497,118.567-54.562
			c52.688-19.604,124.477-37.625,180.266-14.776c4.395,1.802,6.342,3.893,10.378,1.514l-1.01-0.866
			c-1.873-1.296-6.63-3.459-8.503-4.251c-46.489-19.676-87.359-18.02-135.939-4.613c-22.343,6.198-43.245,14.344-64.075,23.569
			l-20.11,9.152c-12.902,5.696-35.463,17.301-48.797,24.219l-28.976,14.921c-6.703,3.315-12.757,6.632-19.46,9.73
			c-3.315,1.513-6.487,3.099-9.874,4.758c-3.1,1.585-7.065,3.027-9.804,4.756v7.207l37.192-20.686L275.031,647.745z"/>
		<path style="fill:#FEFEFE;" d="M593.54,578.047c1.729-0.071,2.451-1.945,3.459-3.027c15.93-18.379,33.876-32.65,56.222-44.544
			c63.283-33.875,142.784-47.714,215.294-53.121c17.01-1.297,33.804-1.946,50.958-2.883l-0.07-7.28
			c-2.235-0.216-19.751,2.883-23.498,3.46c-23.354,3.46-48.869,6.559-72.438,9.802c-55.858,7.568-126.566,18.524-176.227,42.237
			c-8.577,4.109-18.165,9.658-25.372,15.426l-14.198,13.188c-4.183,5.046-8.072,10.235-10.741,16.649
			c-0.864,2.02-3.316,8.146-3.242,10.235L593.54,578.047z"/>
		<path style="fill:#FEFEFE;" d="M237.623,675.713c2.595-1.082,6.487-3.678,9.153-5.118c45.409-25.732,93.701-50.815,143.001-69.122
			c27.895-10.38,56.941-19.39,88.8-24.361c29.479-4.614,65.518-4.975,94.276,5.188c2.092,0.721,2.092,0.721,4.612-0.289l0.362-0.144
			c-3.605-2.451-15.64-6.271-20.903-7.64c-86.42-22.271-206.356,34.957-283.047,75.969c-2.595,1.369-34.525,18.884-36.183,20.471
			v5.116L237.623,675.713z"/>
		<path style="fill:#FEFEFE;" d="M63.557,408.521c-0.793,0.793-2.306,3.171-2.739,4.324c-0.648,1.586,0.793,2.812,1.801,4.253
			l60.112,89.664c7.28,10.812,14.488,21.552,21.696,32.436c7.279,10.955,14.631,21.839,21.84,32.578
			c4.179,6.199,64.148,96.439,65.661,97.521c-0.431-2.092,0.433-4.397,0.073-6.56c-0.144-1.01-1.874-3.1-2.523-4.109
			C211.892,631.889,65.071,410.035,63.557,408.521z"/>
		<path style="fill:#FEFEFE;" d="M596.784,577.759c3.604,0.072,3.46-1.009,7.928-5.406c1.37-1.296,2.018-2.089,3.39-3.315
			c1.151-1.009,2.159-2.018,3.387-3.027c2.451-2.018,4.467-3.892,7.064-5.983c70.129-57.156,186.896-73.012,276.415-78.346
			c3.386-0.217,23.569-0.793,24.867-1.298c0.143-1.73,0.072-2.811-0.29-4.47c-62.636,2.091-130.389,9.083-187.183,25.083
			c-25.59,7.208-53.771,16.939-76.476,29.695c-23.93,13.406-38.992,24.29-56.22,43.607
			C598.729,575.309,597.647,576.461,596.784,577.759z"/>
		<path style="fill:#FEFEFE;" d="M237.479,681.621c2.882-1.441,5.981-3.387,8.864-5.045c20.111-11.605,42.454-23.497,63.212-33.804
			c49.95-24.794,107.036-48.725,163.183-59.03c24.506-4.47,51.463-6.488,76.691-3.172c4.107,0.576,7.927,1.152,12.036,2.017
			c3.389,0.721,8,2.379,9.948,1.515l0.862-0.505c-15.854-4.829-29.623-7.495-47.715-8.144
			c-80.941-2.812-181.994,44.11-251.548,82.166c-2.812,1.515-33.66,18.451-35.607,20.11L237.479,681.621z"/>
		<path style="fill:#FEFEFE;" d="M626.696,577.614c2.521,0.576,3.317-1.153,6.848-4.108c14.198-11.82,33.877-20.757,51.606-26.596
			c68.474-22.417,168.947-26.236,241.171-26.669c-0.143-1.802-1.153-4.757-1.153-4.757c0-0.144-0.071-0.144-0.144-0.217
			c-8.22-0.216-33.517,1.153-43.536,1.586c-59.03,2.307-145.739,6.127-198.716,26.523c-20.687,7.929-33.805,15.641-50.095,28.688
			L626.696,577.614z"/>
		<path style="fill:#FEFEFE;" d="M236.182,726.815c5.838-2.523,11.893-6.632,17.371-9.876c16.793-9.946,35.174-20.759,52.111-30.056
			c55.428-30.272,130.172-69.843,191.22-82.096c12.831-2.595,36.326-5.839,49.159-2.378c0.144-0.938-0.724,0,0.503-0.938
			c-0.577-0.722,0.577-0.288-1.227-0.865l-4.25-0.866c-6.271-1.225-12.759-1.513-19.172-1.368
			c-8.508,0.144-16.724,1.225-24.868,2.738c-60.761,11.029-138.389,52.112-191.727,81.521c-17.298,9.514-35.029,20.11-51.967,30.2
			c-2.955,1.729-5.622,3.314-8.578,5.116c-2.522,1.515-5.837,3.821-8.433,5.046l-0.215,3.821H236.182z"/>
		<path style="fill:#FEFEFE;" d="M166.771,608.463l-34.381-50.237c-7.28-10.812-15.785-22.633-22.921-33.371
			c-3.748-5.694-7.568-11.172-11.388-16.649L52.457,441.75c-0.865,2.955-0.073,3.171,1.297,5.189l154.678,232.088
			c1.369,2.089,21.407,32.579,22.488,33.517c0.36-0.794,0.288-2.309,0.36-3.244c0.217-5.766,0.504-5.91-1.658-9.082
			c-1.947-2.882-3.748-5.55-5.693-8.289c-3.893-5.551-7.497-11.027-11.389-16.576c-7.712-11.101-15.137-22.345-22.92-33.372
			c-7.785-11.173-15.064-22.201-22.92-33.372L166.771,608.463z"/>
		<path style="fill:#FEFEFE;" d="M236.47,721.121c1.37-0.289,15.063-8.866,17.371-10.235c26.885-16.361,59.607-34.885,87.429-49.517
			c45.77-23.931,106.17-52.978,157.057-61.987c14.126-2.523,36.686-4.252,49.517,0.721c0.577-1.153,1.009-0.649,1.512-2.162
			c-10.81-1.801-11.675-2.811-24.218-3.459c-23.423-1.226-48.867,4.541-70.274,11.603c-27.029,8.938-53.122,20.759-76.978,32.867
			c-24.507,12.47-48.22,25.012-71.573,38.275c-3.459,2.017-66.095,37.335-69.627,39.929l-0.145,4.037L236.47,721.121z"/>
		<path style="fill:#FEFEFE;" d="M236.614,715.066c2.522-0.938,6.559-3.678,9.01-5.118c26.523-15.064,52.111-30.271,79.212-44.903
			c6.055-3.316,11.964-6.487,17.947-9.73c11.892-6.488,24.074-12.688,36.255-18.812c42.525-21.12,99.25-46.923,149.416-43.464
			c7.136,0.505,13.838,1.586,20.687,3.315c0.647,0.145,0.863,0.288,1.44,0.216l0.937-0.36c-0.505-0.792,0.072-0.145-0.505-0.504
			l-2.161-0.576c-1.009-0.216-1.804-0.434-2.739-0.577c-5.983-1.226-11.893-2.018-18.021-2.379
			c-24.577-1.585-48.65,3.028-71.571,9.659c-64.87,18.812-142.786,63.428-202.753,97.303l-17.227,9.876v6.199L236.614,715.066z"/>
		<path style="fill:#FEFEFE;" d="M601.974,577.111c1.513,0.072,1.659,0.072,2.521-0.723l5.118-4.612
			c66.96-58.383,175.509-76.763,262.361-83.682c7.928-0.649,15.929-1.153,23.857-1.586c3.604-0.215,22.85-0.721,24.435-1.369
			c0.071-2.091-0.289-2.308-0.289-2.883c0-0.145-0.07-0.145-0.07-0.289c-3.894-0.217-8.868,0.289-12.757,0.432
			c-54.421,2.451-118.929,9.514-170.031,23.497c-40.868,11.173-74.385,24.362-107.468,47.427
			c-8.36,5.839-20.975,16.362-27.605,23.642L601.974,577.111z"/>
		<path style="fill:#FEFEFE;" d="M120.138,521.178c14.992,21.335,29.695,43.176,44.543,64.727c7.495,10.812,14.631,21.55,22.2,32.29
			c0.792,1.081,43.247,63.5,44.832,64.797c-0.36-2.812,0.504-4.325-0.938-6.415l-19.316-28.182
			c-14.847-21.335-29.335-43.318-44.255-64.726l-44.111-64.509c-3.821-5.478-64.581-95.069-66.238-96.583
			c-1.731,5.55-1.875,3.892,1.945,9.298c1.946,2.739,3.675,5.406,5.549,8.145C83.09,466.688,101.47,494.582,120.138,521.178z"/>
		<path style="fill:#FEFEFE;" d="M230.56,723.354c0.071-2.162,0.432-4.613,0.432-6.774c0-2.019-6.776-11.245-8.145-13.19
			L120.209,549.432c-7.711-11.531-15.136-22.775-22.848-34.309c-0.721-1.153-44.615-67.464-45.697-68.328
			c-0.577,1.441,3.82,7.135,4.829,8.504c2.018,2.812,3.676,5.695,5.622,8.65l33.66,51.823c8.866,14.271,19.028,29.264,27.678,43.535
			l11.1,17.515c1.874,2.811,3.675,5.693,5.549,8.721c7.28,11.894,14.848,22.92,22.2,34.741
			c17.947,29.048,37.696,57.661,56.652,86.133c1.947,2.955,3.748,5.767,5.694,8.576c1.081,1.515,4.829,7.642,5.838,8.435
			L230.56,723.354z"/>
		<path style="fill:#FEFEFE;" d="M211.819,664.468c-3.892-5.405-7.64-10.884-11.388-16.361
			c-18.524-27.102-37.696-54.42-56.509-81.375c-15.208-21.768-30.056-43.463-45.264-65.229
			c-7.568-10.885-15.136-21.768-22.704-32.724l-22.632-32.435c-1.009,4.036-0.577,3.244,3.532,9.226l61.913,90.242
			c7.28,10.811,15.497,22.127,22.489,32.867c7.279,11.172,15.208,21.694,22.488,32.868c6.847,10.449,15.424,22.342,22.56,32.865
			c6.992,10.379,15.857,22.705,22.488,32.868c3.676,5.62,7.424,10.883,11.245,16.433c1.657,2.379,10.235,15.354,11.461,16.217
			c-0.505-2.09,0.287-4.612-0.145-6.773c-0.216-1.154-1.946-3.245-2.739-4.326l-16.938-24.434L211.819,664.468z"/>
		<path style="fill:#FEFEFE;" d="M379.759,653.295c5.334-2.667,10.812-4.9,16.363-7.351c44.976-20.182,98.241-35.822,147.325-42.31
			c-2.234-1.225-10.019-1.081-13.119-1.081c-35.028-0.072-78.13,15.569-109.772,28.83c-35.605,14.992-58.959,27.462-92.402,44.833
			c-10.163,5.261-19.821,10.954-29.624,16.36c-5.045,2.739-9.659,5.478-14.56,8.289l-14.198,8.288l109.988-55.786V653.295z"/>
		<path style="fill:#FEFEFE;" d="M237.406,688.181c5.767-3.242,11.604-6.63,17.515-10.019c5.839-3.243,11.822-6.56,17.803-9.874
			c32.939-18.38,78.348-40.437,111.936-53.915c50.453-20.182,121.306-42.091,177.743-28.181c4.326,1.08,2.811-0.145,5.189-0.435
			c-1.873-1.584-19.389-3.891-23.281-4.324c-25.444-2.666-51.03-0.144-75.753,4.542c-30.128,5.768-57.445,15.063-84.403,25.155
			c-39.21,14.632-75.032,33.301-111.719,52.616l-35.174,19.604l0.073,4.759L237.406,688.181z"/>
		<path style="fill:#FEFEFE;" d="M176.285,594.408c3.604,5.479,7.352,10.668,11.028,16.073
			c10.884,16.146,22.488,32.436,33.156,48.436c1.513,2.234,9.947,14.921,11.1,16.002c0.289-3.099-0.289-3.46-1.585-5.406
			l-40.581-60.473c-14.559-21.55-28.83-42.959-43.245-64.509c-7.28-10.811-14.344-21.407-21.624-32.218
			c-7.352-10.884-63.86-95.863-64.942-96.584c-0.648,0.937-2.018,4.036-1.874,5.045c0.144,0.793,18.38,27.172,19.173,28.326
			c7.495,10.667,14.776,21.479,22.126,32.362c14.632,21.623,29.408,42.958,44.111,64.508c7.424,10.884,14.632,21.553,22.128,32.364
			C168.934,583.669,172.754,589.075,176.285,594.408z"/>
		<path style="fill:#FEFEFE;" d="M188.755,623.599c-15.137-21.55-29.479-43.101-44.544-64.724
			c-14.992-21.479-29.479-43.246-44.471-64.726l-39.066-56.796c-0.937-1.442-1.802-2.522-2.738-3.965
			c-0.433-0.648-0.865-1.298-1.37-2.017c-0.288-0.434-0.36-0.649-0.721-1.082l-0.792-0.793c-0.721,1.37-1.37,4.253-0.721,5.406
			c0.792,1.369,2.018,2.812,2.883,4.109c12.829,18.812,26.308,37.696,39.281,56.58c7.424,10.811,14.92,21.625,22.561,32.508
			c15.064,21.479,29.912,43.462,44.976,64.869c7.64,10.811,15.064,21.552,22.417,32.362c1.729,2.521,44.183,64.075,45.192,64.725
			c-0.504-3.242,0.721-3.171-1.225-5.838c-6.271-8.722-13.118-19.246-19.462-28.327
			C203.387,645.151,196.251,634.268,188.755,623.599z"/>
		<path style="fill:#FEFEFE;" d="M237.118,694.452c1.009-1.01,6.992-4.109,8.794-5.189c29.768-17.228,68.545-38.129,99.106-52.4
			C404.554,609.04,490.181,573,558.367,589.29c1.801,0.434,3.244-0.071,4.398-1.44c-13.554-4.107-35.897-4.973-50.889-4.181
			c-56.94,3.099-119.072,27.103-169.598,50.742c-12.397,5.839-25.082,11.894-36.976,18.163
			c-21.983,11.533-41.083,21.983-62.418,34.093c-6.415,3.676-6.127,2.451-5.911,7.785H237.118z"/>
		<path style="fill:#FEFEFE;" d="M633.759,579.489c1.659,0,2.669,0.647,4.255-0.217l10.161-5.911
			c4.757-2.666,9.444-5.045,14.343-7.28c4.975-2.307,9.73-4.54,14.991-6.631c29.409-11.603,52.257-17.227,85.629-21.767
			c25.084-3.389,55.93-5.045,81.306-4.974c28.396,0.145,57.299,0.793,85.623,0.217c0.148-1.514-1.296-5.55-1.727-6.775
			c-28.399,0.865-56.365,1.153-84.62,2.811c-26.956,1.587-53.049,3.965-79.357,7.425c-38.489,4.973-84.113,14.775-117.701,34.236
			c-1.73,1.01-11.82,6.991-12.902,8.938V579.489z"/>
		<path style="fill:#FEFEFE;" d="M623.597,577.111c1.298,0.216,1.37-0.073,2.09-0.794l4.541-4.035
			c2.164-1.874,4.036-3.389,6.2-5.047c33.009-25.586,75.176-36.399,117.341-42.237c55.57-7.641,113.882-9.226,170.966-11.243
			c0.145-1.803-0.505-3.604-0.937-5.263c-5.478-0.287-36.471,1.369-44.329,1.73c-39.784,1.946-88.293,5.262-126.348,12.037
			c-26.093,4.684-49.95,10.308-72.729,19.46c-11.027,4.47-21.264,9.658-30.703,15.569c-7.858,4.901-19.75,13.406-26.02,19.749
			L623.597,577.111z"/>
		<path style="fill:#FEFEFE;" d="M630.442,578.48c2.163,0.432,3.46-1.369,6.993-3.822c34.093-23.496,84.548-34.02,125.054-39.568
			c53.409-7.352,110.062-9.875,165.202-10.452l-0.577-2.954c-6.56,0.648-15.28,0.288-22.057,0.433
			c-7.133,0.144-14.271,0.287-21.334,0.503c-41.66,1.371-82.025,3.605-123.182,9.299c-25.081,3.459-49.732,8.432-72.508,15.712
			c-10.956,3.461-21.912,7.856-31.354,12.758c-5.478,2.812-24.074,13.983-26.163,18.093H630.442z"/>
		<path style="fill:#FEFEFE;" d="M236.903,700.579c1.657-0.577,32.218-18.236,35.39-19.967l35.462-19.316
			c23.713-12.829,48.147-24.578,73.519-36.038c44.544-20.11,102.853-40.939,154.03-36.471c5.622,0.503,12.469,1.513,17.946,2.738
			c5.118,1.153,2.739,0,4.829-0.36c-0.505-0.721,0.577-0.216-1.298-0.793l-4.252-0.864c-1.874-0.361-3.749-0.649-5.694-0.936
			c-4.181-0.65-8.144-1.082-12.396-1.371c-8.795-0.577-17.732-0.577-26.454,0.071c-65.661,4.613-144.226,40.509-201.022,70.347
			c-11.964,6.272-23.641,12.688-35.245,18.957c-9.731,5.262-25.443,13.984-34.454,19.604l-0.144,4.47L236.903,700.579z"/>
		<path style="fill:#FEFEFE;" d="M606.443,576.966c3.963-1.082,3.46-1.586,7.639-5.261c2.091-1.876,4.542-3.819,6.849-5.624
			c35.461-27.316,76.474-43.029,121.16-53.768c53.339-12.83,123.325-20.038,178.75-21.264c0-1.657-0.214-2.45-0.286-4.035
			c-24.794,0.216-68.835,4.035-93.914,7.279c-67.322,8.577-135.293,24.291-192.018,60.617c-4.758,3.1-26.595,18.812-28.253,22.128
			L606.443,576.966z"/>
		<path style="fill:#FEFEFE;" d="M236.758,707.064c2.163-0.721,6.631-3.747,8.938-5.045c20.759-11.748,40.291-22.92,61.554-34.669
			c9.73-5.333,26.381-14.488,35.966-19.101c12.326-5.982,24.146-12.324,36.687-18.091c38.923-17.804,81.015-35.751,125.703-39.498
			c14.705-1.226,29.84-0.289,44.184,2.954c3.244,0.721,3.316,1.299,4.612-0.359c-66.597-17.084-156.479,25.01-212.41,52.038
			c-12.181,5.911-23.786,12.325-35.751,18.453c-6.414,3.243-68.834,37.337-69.411,38.995L236.758,707.064z"/>
		<path style="fill:#FEFEFE;" d="M610.985,576.532c3.529,0.29,2.664-0.144,4.61-1.8c1.082-0.866,2.234-1.875,3.316-2.812
			c33.731-29.624,82.743-46.778,126.567-56.653c27.317-6.127,55.785-10.09,84.546-13.117c14.921-1.586,30.129-2.812,45.121-3.748
			c5.404-0.361,45.12-1.947,46.419-2.523c0-2.955-0.146-3.099-1.082-3.315c-0.361-0.073-0.506-0.073-0.866-0.073l-21.911,1.009
			c-49.731,2.523-105.305,8.361-152.806,19.678c-45.118,10.738-84.255,25.444-120.438,52.111c-2.523,1.874-4.685,3.604-6.991,5.479
			c-1.875,1.515-5.189,4.108-6.417,5.693L610.985,576.532z"/>
		<path style="fill:#FEFEFE;" d="M616.099,576.606c2.38,0.144,3.03-1.011,4.255-2.02c8.578-7.352,13.549-11.388,23.784-17.874
			c30.993-19.678,67.105-31.066,104.513-38.49c49.95-9.874,100.043-13.263,150.931-15.784c3.171-0.145,21.479-0.649,22.775-1.009
			c0-1.371,0-2.523-0.648-3.677c-6.776-0.36-16.145,0.577-23.138,0.937c-47.858,2.235-105.233,7.497-150.639,17.659
			c-41.95,9.37-85.123,23.786-118.857,49.445c-1.368,1.082-12.037,9.154-13.045,10.883L616.099,576.606z"/>
		<path style="fill:#FEFEFE;" d="M620.063,576.822c2.163,0.216,2.597-1.008,3.894-2.235l9.516-7.855
			c32.649-25.732,75.896-38.417,117.484-45.554c48.58-8.361,122.531-13.263,172.481-14.198c-0.288-1.587-0.362-2.235-0.721-3.894
			c-2.234-0.359-8.505,0.218-11.103,0.289c-53.119,2.234-109.05,5.766-160.729,15.856c-26.167,5.118-50.384,11.966-72.942,21.336
			c-11.027,4.612-21.696,10.162-31.137,16.073c-4.471,2.81-23.57,15.929-26.743,20.109V576.822z"/>
		<path style="fill:#FEFEFE;" d="M181.475,582.516c-12.614-19.605-24.867-40.65-37.264-60.112
			c-2.523-3.892-4.973-8.073-7.496-11.964c-2.523-3.965-4.757-7.93-7.28-11.895l-15.136-23.785
			c-3.1-4.757-44.327-67.681-46.779-69.915c-1.225,0.36-2.09,1.082-2.882,2.234c2.163,3.893,12.253,18.741,15.496,23.569
			l85.411,128.801c2.667,4.037,5.262,7.713,7.785,11.676c3.749,5.768,13.045,19.102,15.569,23.499
			c-0.432-1.369-2.811-4.828-3.676-6.127C183.998,586.553,182.772,584.461,181.475,582.516z"/>
	</g>
</g>
<g>
	<g>
		<path style="fill:#48C0D8;" d="M539.293,404.957l123.104-54.281c15.588-6.873,33.794,0.19,40.667,15.777l0,0
			c6.872,15.586-0.192,33.793-15.779,40.666L564.182,461.4c-15.587,6.873-33.795-0.191-40.667-15.776l0,0
			C516.643,430.037,523.707,411.83,539.293,404.957z"/>
		
			<ellipse transform="matrix(-0.4035 -0.915 0.915 -0.4035 549.5114 1083.5242)" style="fill:#48C0D8;" cx="627.964" cy="362.632" rx="42.712" ry="45.439"/>
		
			<ellipse transform="matrix(-0.4034 -0.915 0.915 -0.4034 463.8282 1096.4829)" style="fill:#48C0D8;" cx="589.35" cy="397.041" rx="37.714" ry="40.122"/>
	</g>
	<path style="fill:none;stroke:#333333;stroke-width:9;" d="M611.997,329.879c-15.11,6.668-25.632,20.519-27.475,36.175
		c-3.129,0.588-6.189,1.53-9.119,2.805c-15.386,6.808-25.145,21.916-24.439,37.838l-10.403,4.588
		c-15.636,6.895-22.672,25.032-15.777,40.667c6.895,15.636,25.03,22.672,40.666,15.778l123.106-54.283
		c15.635-6.895,22.673-25.031,15.778-40.667c-5.647-12.808-18.841-19.842-32.023-18.178c-0.432-1.351-0.934-2.678-1.505-3.976
		c-9.519-21.583-35.847-30.873-58.811-20.748L611.997,329.879z"/>
</g>
<g>
	<g>
		<path style="fill:#48C0D8;" d="M324.741,471.775L324.741,471.775c-2.233-3.593-6.999-4.704-10.591-2.471l-43.368,26.959
			c-3.593,2.233-4.705,6.999-2.472,10.591l0,0c2.233,3.594,6.999,4.704,10.592,2.471c-3.593,2.233-4.705,7-2.472,10.592
			s7,4.706,10.592,2.473l3.625-2.255c-3.593,2.234-4.705,6.998-2.472,10.593c2.233,3.591,6.999,4.703,10.591,2.471l36.118-22.453
			c3.592-2.233,4.704-7,2.471-10.591c-2.233-3.593-6.998-4.704-10.591-2.471l3.625-2.254c3.592-2.233,4.704-7,2.47-10.592
			c-2.232-3.591-6.999-4.704-10.591-2.471C325.861,480.133,326.974,475.368,324.741,471.775z"/>
	</g>
	<path style="fill:#333333;" d="M212.955,361.871c-32.792,20.385-42.886,63.649-22.501,96.44
		c11.328,18.222,29.89,30.009,51.138,32.552l4.71,7.577c3.798,6.109,10.335,9.495,17.045,9.573
		c-0.321,2.506,0.181,5.133,1.616,7.441c1.566,2.519,3.966,4.201,6.621,4.939c-0.514,2.706-0.067,5.604,1.499,8.123
		c2.223,3.574,6.119,5.48,10.05,5.353c0.088,1.875,0.636,3.754,1.695,5.458c3.308,5.32,10.323,6.963,15.649,3.669
		c0.259,1.309,0.74,2.592,1.484,3.789c8.188,13.173,20.083,9.61,28.619,4.305c12.417-7.72,15.38-16.993,8.806-27.569
		c-0.744-1.198-1.683-2.195-2.741-3.007c5.311-3.319,6.942-10.337,3.634-15.658c-1.059-1.702-2.5-3.025-4.142-3.934
		c1.854-3.472,1.869-7.808-0.354-11.383c-1.565-2.518-3.965-4.202-6.621-4.938c0.514-2.708,0.067-5.604-1.499-8.124
		c-1.435-2.308-3.568-3.92-5.958-4.743c2.9-6.051,2.756-13.412-1.042-19.52l-4.71-7.578c7.125-20.18,4.769-42.043-6.558-60.265
		C289.012,351.581,245.748,341.486,212.955,361.871z M329.514,493.437c1.165,1.874,0.588,4.345-1.285,5.508l-3.625,2.254
		l-36.118,22.451l-3.625,2.256c-1.873,1.163-4.344,0.586-5.508-1.287c-1.165-1.873-0.587-4.342,1.285-5.507l43.368-26.959
		C325.88,490.989,328.35,491.564,329.514,493.437z M326.684,544.82c-12.442,7.735-16.501,1.205-18.451-1.932
		c-1.165-1.874-0.588-4.344,1.285-5.508l18.091-11.248c1.874-1.163,4.343-0.586,5.508,1.287
		C335.364,531.035,339.126,537.087,326.684,544.82z M332.725,514.262l-9.014,5.603L305.62,531.11l-9.013,5.604
		c-1.873,1.164-4.344,0.588-5.507-1.284c-1.165-1.873-0.588-4.344,1.285-5.508l36.118-22.453c1.873-1.164,4.343-0.587,5.508,1.286
		C335.172,510.626,334.597,513.097,332.725,514.262z M315.887,479.09c1.873-1.165,4.343-0.588,5.507,1.286
		c1.165,1.874,0.588,4.342-1.285,5.506l-43.368,26.959c-1.873,1.164-4.343,0.59-5.508-1.283c-1.164-1.873-0.587-4.345,1.285-5.508
		l1.746-1.086l39.876-24.789L315.887,479.09z M246.951,440.348c-4.037,1.486-7.481,1.997-8.566,0.424
		c-0.657-0.953-0.61-1.534-0.518-1.888c0.227-0.872,1.18-1.849,2.68-2.782c0.45-0.28,0.951-0.555,1.495-0.823
		c0.768-0.377,1.695-0.1,2.158,0.644L246.951,440.348z M297.198,482.015l-13.788,8.57l-29.945-48.172
		c3.218-1.577,5.877-3.223,7.073-3.993c1.218-0.729,3.874-2.387,6.715-4.578L297.198,482.015z M308.419,443.738
		c-0.411,1.079-0.295,2.286,0.313,3.266l5.663,9.108c3.76,6.05,1.898,14.032-4.152,17.792l-9.272,5.765l-30.28-48.71
		c4.462-4.101,8.08-9.158,5.645-13.529c-1.337-2.401-3.158-3.222-4.447-3.488c-2.519-0.519-5.437,0.484-8.686,2.979
		c-2.495,1.918-3.115,5.395-1.442,8.086l3.118,5.016c-2.146,1.697-4.48,3.304-6.654,4.605c-0.013,0.009-0.027,0.016-0.04,0.026
		c-0.007,0.002-0.013,0.007-0.018,0.01c-2.13,1.373-4.603,2.755-7.075,3.931l-3.118-5.017c-1.673-2.691-5.065-3.674-7.889-2.285
		c-3.675,1.805-5.866,3.982-6.515,6.47c-0.332,1.274-0.4,3.269,1.161,5.532c2.84,4.12,8.977,3.113,14.629,0.926l30.28,48.71
		l-9.272,5.764c-6.05,3.761-14.032,1.899-17.793-4.151l-5.662-9.108c-0.609-0.979-1.641-1.618-2.79-1.726
		c-19.698-1.849-36.973-12.526-47.396-29.295c-18.236-29.335-9.206-68.037,20.129-86.272c29.334-18.236,68.037-9.206,86.272,20.128
		C313.55,405.039,315.479,425.257,308.419,443.738z M268.284,427.087l-2.752-4.426c-0.462-0.744-0.3-1.699,0.376-2.219
		c0.482-0.37,0.951-0.697,1.401-0.977c1.5-0.933,2.8-1.354,3.681-1.172c0.359,0.073,0.901,0.289,1.464,1.3
		C273.384,421.261,271.405,424.124,268.284,427.087z"/>
</g>
</svg>
