<?xml version="1.0" encoding="iso-8859-1"?>
<!-- Generator: Adobe Illustrator 16.0.0, SVG Export Plug-In . SVG Version: 6.00 Build 0)  -->
<!DOCTYPE svg PUBLIC "-//W3C//DTD SVG 1.1//EN" "http://www.w3.org/Graphics/SVG/1.1/DTD/svg11.dtd">
<svg version="1.1" id="Layer_1" xmlns="http://www.w3.org/2000/svg" xmlns:xlink="http://www.w3.org/1999/xlink" x="0px" y="0px"
	 width="1024px" height="768px" viewBox="0 0 1024 768" style="enable-background:new 0 0 1024 768;" xml:space="preserve">
<g id="Layer_x0020_1">
	<g id="_2279374912">
		<path style="fill:#FEFEFE;" d="M48.431,284.323c5.639,10.338,16.29,22.869,22.947,33.912c4.385,7.361,11.59,17.307,16.916,25.766
			c1.802,2.818,3.681,5.717,5.482,8.379c3.759,5.482,7.282,11.669,10.963,17.465l32.658,52.394c1.802,2.976,3.759,5.794,5.482,8.692
			c15.742,25.922,32.893,52.863,49.104,78.473c3.837,6.029,7.44,11.121,11.278,16.838l17.072,25.608
			c1.488,2.271,4.542,6.108,5.482,8.302c2.506-0.468,17.621-8.067,21.146-9.788l61.086-30.858
			c27.175-13.782,54.351-27.801,83.17-39.471c44.876-18.092,101.576-35.242,152.481-28.036c11.825,1.644,26.079,4.698,37.279,8.692
			c2.583,0.939,9.005,3.837,10.962,4.072c-5.09-4.698-9.476-9.789-14.329-14.566l-7.05-7.518
			c-4.15-3.994-10.18-10.651-14.096-15.038l-10.574-11.276c-3.052-3.446-6.423-7.832-10.024-11.512
			c-5.481-5.482-11.512-13.551-17.149-19.188c-1.253-1.331-2.115-2.663-3.213-4.073c-1.174-1.487-2.349-2.349-3.524-3.68
			l-85.833-98.678c-0.705-0.626-1.096-1.097-1.723-1.88l-17.229-19.11c-1.41-1.487-2.272-2.349-3.604-3.68l-14.253-14.568
			c-2.897-3.523-5.482-5.168-7.362-7.205l-7.439-7.126c-1.332-1.252-2.115-2.193-3.445-3.524
			c-7.754-7.752-21.695-17.856-34.225-23.964c-46.91-23.026-95.31-17.935-142.064,0.94c-15.35,6.186-35.242,15.115-49.261,23.415
			c-2.976,1.802-6.187,3.29-9.398,5.17c-6.265,3.681-11.903,7.126-17.934,10.807c-6.029,3.759-12.217,7.284-17.933,11.199
			c-4.855,3.29-50.123,32.658-52.001,34.615H48.431z"/>
		<path style="fill:#FEFEFE;" d="M373.44,215.483c0.862,1.176,2.82,2.821,3.916,3.917c1.332,1.251,2.428,2.583,3.761,3.837
			l15.583,15.115c1.566,1.487,2.194,2.115,3.681,3.916l15.193,15.585c1.488,1.488,2.036,2.584,3.446,4.15
			c2.664,3.055,4.699,5.091,7.597,7.911l5.326,6.187c1.957,2.74,6.578,7.048,9.084,10.103c1.174,1.488,2.193,2.663,3.525,4.072
			l57.014,65.708c1.174,1.409,2.271,2.583,3.523,4.072c3.838,4.542,6.423,8.067,10.729,12.374c0.783,0.784,1.175,1.332,1.801,2.115
			l15.977,18.403c1.254,1.409,2.429,2.898,3.682,4.31l10.885,11.902c1.252,1.33,2.351,2.976,3.525,4.386
			c2.112,2.584,8.614,8.693,11.199,11.591l11.2,11.903c1.252,1.409,2.348,2.662,3.6,3.995l7.361,8.144
			c2.508,2.82,5.014,4.622,7.678,7.519c0.704,0.783,1.332,1.175,2.191,1.8c3.681,2.899,10.886,11.593,13.86,12.846
			c3.761-10.886,3.604-10.417,9.478-20.283c4.228-7.128,14.41-17.309,21.692-22.946c2.822-2.193,5.482-4.072,8.694-6.188
			c54.117-35.241,145.039-48.712,209.809-57.641c11.747-1.644,101.339-13,104-14.723c-1.016-1.645-5.639-4.621-7.597-6.031
			c-12.763-8.693-26.234-19.422-39.392-28.35l-15.818-11.277c-5.247-3.917-10.729-7.363-15.898-11.2l-47.617-33.362
			c-10.885-7.126-21.224-14.958-32.108-22.163c-5.327-3.524-10.808-7.362-16.056-11.042c-5.167-3.682-10.649-7.127-15.896-10.886
			c-5.484-3.916-10.65-7.361-16.057-11.12c-5.325-3.682-10.651-7.519-16.056-11.043c-12.921-8.538-27.096-19.031-39.941-27.566
			c-8.063-5.327-15.974-11.356-23.962-16.761c-10.18-6.812-5.562-4.699-20.207-2.427c-27.486,4.229-49.808,3.758-77.688,3.836
			c-17.855,0.079-35.712,0.157-53.567,0.235c-8.694,0-18.405-0.392-26.941,0.157c-28.038,1.802-61.165,9.007-84.424,23.651
			c-2.976,1.88-5.482,3.603-7.988,5.561c-7.597,5.796-7.752,5.952-14.566,12.53c-4.542,4.386-16.211,18.718-17.465,22.868
			L373.44,215.483z"/>
		<path style="fill:#302F2F;" d="M262.546,618.419l15.427-9.008c5.247-3.054,10.339-6.03,15.82-9.005
			c10.651-5.873,21.145-11.983,32.188-17.777c36.338-18.874,61.713-32.423,100.4-48.713c34.381-14.488,81.213-31.482,119.273-31.326
			c3.369,0,11.827-0.156,14.255,1.175c-53.332,7.048-111.207,23.964-160.076,45.97c-6.032,2.742-11.983,5.169-17.779,7.989
			L262.546,618.34V618.419z M225.973,637.685l0.234-4.151c2.82-1.254,6.422-3.76,9.163-5.482c3.211-1.958,6.109-3.681,9.32-5.56
			c18.405-10.963,37.67-22.477,56.465-32.814c57.954-31.953,142.3-76.592,208.321-88.576c8.77-1.563,17.775-2.739,27.02-2.975
			c6.969-0.157,13.938,0.155,20.832,1.486l4.617,0.941c1.96,0.704,0.786,0.155,1.333,0.939c-1.333,1.019-0.391,0-0.547,1.019
			c-13.943-3.839-39.472-0.235-53.413,2.584c-66.332,13.313-147.545,56.309-207.771,89.201
			c-18.403,10.102-38.375,21.771-56.622,32.657c-5.953,3.525-12.532,7.989-18.875,10.73H225.973z M226.286,631.419l0.156-4.385
			c3.76-2.819,71.816-41.195,75.654-43.39c25.374-14.408,51.14-28.035,77.768-41.585c25.922-13.155,54.272-26.001,83.641-35.712
			c23.337-7.675,50.905-13.94,76.358-12.608c13.705,0.704,14.643,1.802,26.312,3.762c-0.549,1.644-1.017,1.095-1.644,2.348
			c-14.018-5.405-38.451-3.445-53.803-0.784c-55.292,9.791-120.919,41.352-170.649,67.352
			c-30.23,15.819-65.785,36.026-94.997,53.804c-2.507,1.487-17.308,10.807-18.875,11.12L226.286,631.419z M226.441,624.919v-6.735
			l18.718-10.73c65.158-36.885,149.817-85.285,220.302-105.725c24.904-7.205,51.061-12.218,77.765-10.494
			c6.659,0.391,13.079,1.253,19.581,2.583c1.017,0.236,1.958,0.392,2.976,0.626l2.349,0.629c0.704,0.469,0-0.237,0.549,0.546
			l-1.018,0.393c-0.628,0.079-0.939,0-1.565-0.235c-7.441-1.878-14.724-3.054-22.477-3.603
			c-54.508-3.758-116.143,24.2-162.349,47.225c-13.314,6.579-26.471,13.394-39.393,20.441c-6.501,3.602-12.922,6.97-19.501,10.572
			c-29.447,15.975-57.249,32.5-86.068,48.791c-2.664,1.565-7.127,4.541-9.79,5.559L226.441,624.919z M226.599,616.225l0.079-4.696
			c0.626-1.726,68.447-38.847,75.418-42.37c13-6.578,25.609-13.628,38.844-20.051c60.773-29.367,158.433-75.104,230.797-56.542
			c-1.41,1.802-1.486,1.174-5.013,0.391c-15.586-3.523-32.109-4.541-48.007-3.21c-48.558,4.151-94.292,23.572-136.583,42.917
			c-13.706,6.266-26.471,13.156-39.863,19.656c-10.416,5.012-28.585,14.959-39.079,20.754
			c-23.104,12.688-44.327,24.905-66.881,37.67C233.882,612.153,228.948,615.364,226.599,616.225z M226.754,609.1l0.157-4.855
			c9.869-6.031,26.941-15.586,37.435-21.304c12.609-6.812,25.296-13.704,38.296-20.597c61.712-32.423,147.077-71.501,218.422-76.436
			c9.555-0.705,19.267-0.705,28.742-0.078c4.542,0.312,8.927,0.783,13.47,1.488c2.114,0.313,4.149,0.626,6.185,1.019l4.625,0.938
			c2.111,0.626,0.859,0.078,1.407,0.861c-2.271,0.393,0.313,1.646-5.244,0.393c-5.955-1.409-13.396-2.506-19.504-2.978
			c-55.525-4.776-118.96,17.857-167.36,39.629c-27.566,12.452-54.115,25.218-79.881,39.157l-38.532,20.989
			c-3.446,1.879-36.573,21.067-38.453,21.693L226.754,609.1z M226.991,602.442c-0.236-5.796-0.626-4.464,6.422-8.458
			c23.181-13.158,43.935-24.514,67.821-37.044c12.922-6.814,26.628-13.392,40.175-19.735
			c54.821-25.688,122.408-51.767,184.278-55.135c16.29-0.86,40.566,0.079,55.291,4.543c-1.253,1.487-2.82,2.036-4.779,1.565
			c-74.085-17.697-167.202,21.459-231.813,51.689c-33.284,15.585-75.417,38.218-107.683,56.935c-1.958,1.176-8.458,4.543-9.554,5.64
			H226.991z M227.304,595.63l-0.079-5.171l38.219-21.301c39.862-20.911,78.785-41.194,121.389-57.171
			c29.212-10.965,58.973-21.065,91.708-27.332c26.862-5.091,54.663-7.832,82.31-4.936c4.229,0.472,23.261,2.899,25.296,4.699
			c-2.662,0.314-0.938,1.646-5.639,0.472c-61.321-15.114-138.306,8.772-193.126,30.62c-36.573,14.645-85.834,38.61-121.625,58.581
			c-6.499,3.602-13,7.205-19.344,10.729c-6.5,3.603-12.765,7.363-19.031,10.886L227.304,595.63z M227.381,588.579l-0.078-4.229
			c2.115-1.722,35.633-20.127,38.688-21.851c75.575-41.35,185.372-92.334,273.32-89.278c19.66,0.705,34.535,3.602,51.845,8.849
			l-0.939,0.549c-2.115,0.861-7.205-0.94-10.808-1.646c-4.387-0.939-8.614-1.565-13.08-2.191c-27.409-3.68-56.7-1.487-83.326,3.446
			c-61.086,11.197-123.034,37.12-177.306,64.14c-22.554,11.198-46.833,24.119-68.683,36.729
			C233.882,584.899,230.514,587.013,227.381,588.579z M227.538,582.159v-5.561c1.802-1.725,36.495-20.753,39.314-22.242
			c83.329-44.641,213.568-106.823,307.545-82.544c5.716,1.487,18.876,5.638,22.712,8.3l-0.391,0.157
			c-2.742,1.097-2.742,1.097-5.013,0.312c-31.325-11.041-70.483-10.649-102.437-5.637c-34.537,5.403-66.1,15.192-96.485,26.47
			c-53.489,19.894-105.96,47.146-155.378,75.104c-2.818,1.645-7.126,4.465-9.945,5.562L227.538,582.159z M227.774,574.248v-7.832
			c2.976-1.879,7.205-3.445,10.65-5.168c3.681-1.801,7.048-3.524,10.729-5.169c7.283-3.367,13.94-6.972,21.145-10.571l31.483-16.213
			c14.488-7.519,39-20.127,53.02-26.312l21.85-9.949c22.634-10.023,45.267-18.95,69.623-25.606
			c52.863-14.567,97.189-16.448,147.702,5.013c2.037,0.86,7.282,3.21,9.242,4.62l1.095,0.939c-4.386,2.582-6.578,0.233-11.277-1.645
			c-60.615-24.827-138.696-5.248-195.865,16.053c-43.936,16.37-88.262,37.202-128.831,59.286l-40.41,22.477L227.774,574.248z
			 M657.961,477.528c1.175-2.115,12.139-8.692,14.019-9.712c36.495-21.144,86.067-31.717,127.888-37.199
			c28.51-3.681,56.936-6.343,86.227-8.067c30.699-1.8,61.009-2.113,91.941-3.053c0.472,1.253,2.037,5.717,1.883,7.362
			c-30.78,0.626-62.261-0.08-93.041-0.235c-27.565-0.157-61.164,1.645-88.339,5.403c-36.261,4.934-61.009,11.043-93.039,23.651
			c-5.718,2.271-10.808,4.699-16.29,7.205c-5.245,2.428-10.338,5.013-15.585,7.909l-11.042,6.422
			c-1.722,0.94-2.897,0.235-4.621,0.235V477.528z M654.359,476.432c2.27-4.464,22.475-16.524,28.429-19.656
			c10.258-5.326,22.162-10.103,34.065-13.862c24.749-7.91,51.532-13.236,78.786-17.071c44.719-6.268,88.574-8.693,133.844-10.105
			c7.674-0.233,15.424-0.39,23.181-0.548c7.439-0.156,16.838,0.236,23.963-0.47l0.625,3.212
			c-59.911,0.626-121.464,3.289-179.496,11.356c-44.016,6.107-98.834,17.541-135.881,42.994c-3.837,2.663-5.167,4.621-7.596,4.15
			H654.359z M650.287,475.57l6.498-6.03c17.778-14.176,32.032-22.556,54.429-31.171c57.562-22.161,151.856-26.312,215.919-28.818
			c10.807-0.392,38.372-1.958,47.304-1.724c0.077,0.08,0.077,0.08,0.155,0.235c0,0,1.098,3.29,1.252,5.169
			c-78.473,0.47-187.645,4.62-262.044,28.978c-19.344,6.344-40.725,16.054-56.072,28.897
			C653.889,474.317,653.027,476.196,650.287,475.57z M646.916,475.023c6.814-6.893,19.737-16.212,28.275-21.46
			c10.258-6.344,21.381-12.061,33.361-16.915c24.747-10.024,50.593-16.135,79.02-21.146c41.353-7.361,94.059-10.965,137.287-13.08
			c8.537-0.392,42.214-2.27,48.167-1.879c0.468,1.724,1.172,3.681,1.016,5.717c-62.023,2.271-125.461,3.994-185.764,12.217
			c-45.814,6.266-91.552,18.092-127.499,45.893c-2.348,1.802-4.386,3.446-6.733,5.483l-4.935,4.385
			c-0.704,0.785-0.783,1.175-2.271,0.864L646.916,475.023z M643.079,474.71c3.449-4.544,24.201-18.876,29.058-21.851
			c10.181-6.424,21.852-12.452,33.832-17.465c24.512-10.259,50.902-17.699,79.256-23.181
			c56.231-10.964,116.924-14.802,174.643-17.229c2.82-0.156,9.635-0.705,12.062-0.313c0.468,1.801,0.468,2.505,0.783,4.229
			c-54.273,1.018-134.626,6.343-187.409,15.428c-45.189,7.755-92.18,21.538-127.654,49.497l-10.339,8.534
			c-1.407,1.332-1.88,2.665-4.23,2.429V474.71z M638.694,474.476c1.021-1.881,12.608-10.651,14.177-11.826
			c36.65-27.881,83.562-43.545,129.142-53.725c49.342-11.044,111.677-16.76,163.682-19.188c7.597-0.39,17.775-1.409,25.139-1.017
			c0.626,1.252,0.704,2.505,0.704,3.992c-1.488,0.392-21.38,0.94-24.75,1.098c-55.287,2.74-109.717,6.422-163.99,17.15
			c-40.646,7.988-79.883,20.363-113.559,41.821c-11.122,7.048-16.524,11.512-25.843,19.422c-1.333,1.097-2.037,2.349-4.621,2.191
			L638.694,474.476z M633.213,474.395c1.412-1.8,5.013-4.541,6.972-6.187c2.504-2.036,4.775-3.915,7.597-5.951
			c39.314-28.978,81.84-44.952,130.862-56.622c51.612-12.217,111.992-18.639,166.031-21.38l23.807-1.096c0.394,0,0.549,0,0.94,0.079
			c1.019,0.157,1.175,0.391,1.175,3.603c-1.41,0.626-44.562,2.426-50.434,2.74c-16.289,1.019-32.895,2.349-49.028,4.072
			c-31.247,3.289-62.182,7.598-91.864,14.255c-47.615,10.729-100.867,29.367-137.521,61.555c-1.098,1.02-2.429,2.036-3.604,3.055
			c-2.112,1.722-1.173,2.193-5.012,1.959L633.213,474.395z M628.2,474.865c1.802-3.602,25.453-20.675,30.701-24.043
			c61.633-39.47,135.483-56.543,208.633-65.862c27.253-3.447,75.105-7.676,102.045-7.911c0.078,1.723,0.314,2.584,0.314,4.386
			c-60.226,1.41-136.272,9.164-194.223,23.103c-48.557,11.67-93.118,28.82-131.649,58.423c-2.505,1.959-5.172,4.075-7.44,6.11
			c-4.542,3.994-4.074,4.543-8.302,5.716L628.2,474.865z M623.425,475.023c7.203-7.987,20.907-19.345,29.995-25.688
			c35.944-25.14,72.362-39.392,116.767-51.532c55.448-15.115,125.54-22.867,184.748-25.531c4.306-0.156,9.71-0.704,13.86-0.469
			c0.08,0.079,0.08,0.158,0.08,0.313c0.078,0.626,0.39,0.94,0.312,3.134c-1.722,0.704-22.633,1.252-26.547,1.487
			c-8.616,0.47-17.232,1.017-25.925,1.723c-94.37,7.518-212.312,27.489-285.067,90.925l-5.562,5.011
			c-0.94,0.863-1.019,0.784-2.742,0.784L623.425,475.023z M617.709,475.649c0.859-1.411,2.112-2.664,3.132-3.759
			c18.715-20.912,35.085-32.813,61.086-47.382c24.669-13.782,55.368-24.435,83.091-32.266
			c61.636-17.386,135.33-24.984,203.388-27.254c0.39,1.801,0.47,2.977,0.312,4.855c-1.488,0.547-23.339,1.174-27.021,1.41
			c-97.268,5.718-224.218,22.947-300.339,85.128c-2.819,2.272-5.013,4.308-7.676,6.501c-1.331,1.095-2.428,2.191-3.681,3.288
			c-1.487,1.255-2.27,2.193-3.681,3.604C621.469,474.552,621.623,475.649,617.709,475.649z M614.261,476.04
			c-0.078-2.271,2.584-8.929,3.523-11.12c2.977-6.892,7.127-12.531,11.671-18.092l15.426-14.332
			c7.833-6.187,18.248-12.294,27.568-16.76c54.039-25.765,130.787-37.669,191.483-45.892c25.608-3.446,53.253-6.813,78.707-10.65
			c4.07-0.628,23.103-3.995,25.53-3.759l0.077,7.909c-18.639,0.94-36.887,1.723-55.369,3.133
			c-78.785,5.874-165.166,20.91-233.929,57.718c-24.199,12.921-43.698,28.429-61.086,48.399c-1.097,1.253-1.879,3.29-3.758,3.29
			L614.261,476.04z M220.333,626.485c0,2.349-0.313,5.013-0.47,7.361c-1.174-0.862-5.169-7.519-6.343-9.163
			c-2.193-3.054-4.072-6.108-6.187-9.319c-20.597-30.935-42.055-62.026-61.556-93.588c-7.91-12.845-16.212-24.825-24.122-37.748
			c-2.037-3.288-3.994-6.5-6.03-9.477l-12.061-19.029c-9.399-15.506-20.44-31.797-30.073-47.303l-36.574-56.31
			c-2.114-3.212-3.993-6.344-6.108-9.398c-1.096-1.489-5.875-7.675-5.247-9.241c1.175,1.018,48.869,73.068,49.652,74.243
			c8.38,12.607,16.447,24.747,24.826,37.277l111.521,167.282c1.41,2.114,8.771,12.141,8.85,14.331L220.333,626.485z
			 M220.804,646.769c3.132-0.628,17.229-8.223,20.91-10.181l20.44-10.651c3.29-1.645,6.579-3.604,9.947-5.247
			c3.367-1.723,6.892-3.604,10.102-5.404c6.578-3.757,13.706-6.891,20.363-10.729c13-7.596,27.253-14.098,40.725-21.146
			c13.783-7.205,27.488-13.704,41.819-20.282c13.393-6.188,29.525-13.003,43.308-18.484c14.958-6.03,29.996-10.807,45.971-15.898
			c22.241-7.125,57.799-15.271,82.232-18.246c13.548-1.645,5.404,0.312,14.565-8.927c15.978-16.135,47.305-21.93,71.66-20.755
			c4.696,0.234,9.24,0.86,13.234,2.271c6.814,2.427,3.369,3.29,10.103-0.86c24.512-15.192,59.521-29.055,88.183-35.87
			c16.916-4.072,34.382-7.126,52.393-9.319c9.477-1.174,18.642-1.879,28.274-2.584c4.934-0.392,9.943-0.312,14.878-0.626
			c5.013-0.313,9.714-0.783,14.881-0.783c41.272,0,82.467,0.783,123.66-0.235c-0.393-2.74-4.621-14.802-5.716-18.718
			c-1.724-5.873-3.994-14.254-4.62-20.44c1.252,0.862,3.915,5.17,4.775,6.501c4.544,6.97,8.46,12.217,13.234,19.813
			c1.726,2.819,15.43,24.825,16.447,27.726c-5.717,0.389-24.825,0.312-31.639,0.312c-31.093,0.077-62.261,0.549-93.271,2.114
			c-9.792,0.471-19.503,1.567-29.213,2.429c-9.714,0.86-19.346,1.722-28.821,2.896c-41.665,5.17-89.673,13.94-127.418,31.719
			c-3.76,1.722-7.128,3.523-10.024,5.794c-3.056,2.428-5.797,4.856-9.087,7.127c-26.159,17.935-60.459,26.549-98.599,28.898
			c-9.946,0.628-20.988,0.392-31.09,0.471c-11.355,0.077-16.449,1.409-27.569,4.072c-17.151,4.229-33.362,8.928-49.729,14.174
			c-32.266,10.339-62.888,21.772-92.57,34.694c-7.438,3.213-14.409,6.658-21.85,9.867c-7.284,3.134-14.879,6.423-21.849,9.868
			c-7.127,3.526-14.49,6.501-21.616,10.104c-7.049,3.603-14.566,6.892-21.537,10.571c-3.603,1.881-6.97,3.448-10.573,5.327
			c-10.259,5.403-21.849,10.571-31.953,15.976c-6.97,3.681-13.939,6.892-21.144,10.574c-3.603,1.802-6.892,3.445-10.573,5.324
			l-10.965,5.405l-13.47-20.521c-9.241-13.47-18.012-27.879-26.94-41.193l-36.417-57.17c-18.874-29.369-36.887-60.146-55.447-89.673
			c-4.308-6.891-8.85-14.017-12.922-21.146c-7.753-13.549-17.542-28.271-25.766-42.368c-2.114-3.682-4.229-6.735-6.344-10.494
			c-6.03-10.73-13.234-21.067-19.344-31.875c-2.584-4.465-6.579-8.224-4.855-11.356c1.096-1.958,6.735-6.813,9.398-7.752
			c0.313,4.542-2.349,2.113,4.15,11.042c2.271,3.054,4.386,6.344,6.579,9.632c4.308,6.658,8.302,13.549,12.765,19.658
			c4.073,5.639,8.458,13.314,12.687,19.658c6.344,9.398,12.609,19.892,18.875,29.368c10.259,15.584,21.301,33.52,31.483,49.496
			c4.229,6.656,8.379,12.999,12.53,19.813c8.223,13.47,16.917,25.765,25.062,39.392c2.113,3.604,4.228,6.345,6.342,9.868
			c2.037,3.446,4.386,6.345,6.422,9.791c7.832,12.92,17.151,26.548,25.531,39.234c4.307,6.501,8.537,13.157,12.922,19.502
			l26.158,38.608L220.804,646.769z M26.424,327.946l49.574,72.207c4.15,5.952,8.301,11.903,12.373,18.091
			c7.753,11.668,16.994,24.512,24.905,36.26l37.356,54.585c8.458,12.219,16.368,24.2,24.904,36.262
			c8.38,11.98,16.525,24.276,24.905,36.261c4.229,6.03,8.145,12.06,12.374,18.012c2.114,2.977,3.994,5.95,6.188,9.006
			c2.35,3.367,2.036,3.524,1.801,9.866c0,1.019,0,2.743-0.392,3.525c-1.096-1.018-22.947-34.146-24.436-36.415L27.912,333.428
			c-1.41-2.115-2.349-2.428-1.41-5.64L26.424,327.946z M27.442,322.072l24.592,35.242c8.145,11.825,16.367,23.729,24.67,35.556
			c16.524,23.65,32.657,47.224,49.182,70.875c20.439,29.288,41.272,58.972,61.398,88.419c4.074,5.951,8.146,11.904,12.375,17.777
			l18.404,26.549c0.783,1.176,2.741,3.445,2.976,4.698c0.47,2.427-0.392,5.169,0.157,7.362
			c-1.332-0.941-10.651-15.038-12.452-17.621c-4.151-6.03-8.223-11.827-12.217-17.856c-7.205-11.042-16.838-24.513-24.435-35.712
			c-7.752-11.435-17.072-24.355-24.513-35.712c-7.988-12.139-16.524-23.573-24.434-35.711c-7.674-11.67-16.525-23.964-24.434-35.713
			l-67.273-98.05c-4.465-6.5-4.935-5.639-3.838-10.024L27.442,322.072z M29.165,314.554l0.863,0.861
			c0.391,0.47,0.47,0.706,0.783,1.175c0.47,0.705,1.018,1.489,1.487,2.193c1.019,1.567,1.958,2.742,2.976,4.308l42.448,61.712
			c16.368,23.339,32.03,46.99,48.321,70.328c16.367,23.494,31.952,46.91,48.398,70.328c8.145,11.588,15.898,23.415,24.121,35.085
			c6.892,9.867,14.332,21.3,21.145,30.776c2.115,2.899,0.783,2.82,1.332,6.346c-1.096-0.705-47.225-67.587-49.105-70.328
			c-7.987-11.748-16.054-23.339-24.355-35.165c-16.367-23.26-32.579-47.146-48.868-70.483c-8.302-11.827-16.447-23.572-24.513-35.32
			c-14.098-20.519-28.742-40.958-42.684-61.478c-0.939-1.41-2.27-2.976-3.131-4.464C27.677,319.253,28.46,316.121,29.165,314.554z
			 M31.124,307.036c1.802,1.644,67.821,98.912,71.972,104.943l47.928,70.091c16.212,23.182,31.954,47.068,48.086,70.328
			l20.989,30.621c1.566,2.271,0.626,3.916,1.018,6.971c-1.645-1.411-47.851-69.231-48.713-70.405
			c-8.145-11.67-15.976-23.34-24.121-35.086c-16.134-23.417-32.109-47.146-48.399-70.327
			c-20.284-28.898-40.332-59.207-60.615-88.184c-2.037-2.897-3.995-5.795-6.031-8.85C29.087,311.186,29.244,313.065,31.124,307.036z
			 M34.099,299.518c1.174,0.782,62.574,93.117,70.562,104.943c7.91,11.747,15.585,23.259,23.496,35.005
			c15.663,23.418,31.169,46.599,46.989,70.095l44.091,65.706c1.41,2.113,2.036,2.506,1.724,5.872
			c-1.254-1.173-10.417-14.957-12.061-17.384c-11.513-17.387-24.2-35.087-36.025-52.63c-3.995-5.873-7.989-11.513-11.983-17.462
			c-3.838-5.797-7.91-11.749-11.982-17.467c-8.145-11.747-15.976-23.337-24.042-35.162c-15.976-23.417-32.032-46.599-47.93-70.093
			c-7.988-11.747-15.976-23.495-24.043-35.164c-0.939-1.332-20.674-29.917-20.831-30.779
			C31.907,303.903,33.394,300.535,34.099,299.518z M38.407,291.764c1.644,1.723,161.172,242.701,180.282,271.755
			c0.783,1.175,2.583,3.367,2.74,4.463c0.392,2.351-0.548,4.856-0.078,7.127c-1.645-1.175-66.804-99.146-71.346-105.96
			c-7.91-11.748-15.898-23.494-23.729-35.399c-7.832-11.825-15.662-23.495-23.573-35.242l-65.314-97.423
			c-1.018-1.567-2.663-2.978-1.958-4.622C35.979,295.209,37.544,292.625,38.407,291.764z M39.582,290.12
			c0.861-1.254,1.723-2.037,3.132-2.429c2.585,2.506,47.381,70.797,50.827,75.966l16.446,25.844c2.74,4.308,5.169,8.615,7.91,12.921
			c2.742,4.31,5.404,8.772,8.146,13.002c13.547,21.067,26.783,44.013,40.489,65.315c1.331,2.114,2.74,4.386,4.072,6.499
			c0.94,1.488,3.525,5.248,3.995,6.658c-2.664-4.777-12.844-19.188-16.917-25.532c-2.74-4.307-5.56-8.379-8.458-12.687
			L56.419,315.728C52.974,310.482,41.931,294.348,39.582,290.12z M48.275,284.167c1.879-1.957,47.146-31.325,52.001-34.615
			c5.716-3.916,11.824-7.44,17.933-11.2c6.031-3.759,11.669-7.127,17.934-10.807c3.212-1.88,6.344-3.369,9.398-5.169
			c14.019-8.303,33.911-17.23,49.261-23.417c46.754-18.874,95.154-23.964,142.064-0.939c12.453,6.109,26.471,16.211,34.225,23.964
			c1.331,1.332,2.113,2.272,3.445,3.525l7.439,7.126c1.88,2.036,4.465,3.603,7.362,7.205l14.253,14.568
			c1.253,1.331,2.115,2.193,3.604,3.68l17.229,19.11c0.626,0.783,1.018,1.252,1.723,1.88l85.833,98.676
			c1.255,1.412,2.351,2.194,3.524,3.682c1.098,1.41,1.96,2.741,3.213,4.073c5.638,5.639,11.747,13.706,17.149,19.188
			c3.602,3.681,6.892,8.067,10.024,11.513l10.574,11.277c3.916,4.308,9.945,11.044,14.096,15.037l7.05,7.519
			c4.775,4.855,9.239,9.866,14.329,14.566c-1.957-0.314-8.3-3.134-10.962-4.075c-11.121-3.991-25.454-6.969-37.279-8.691
			c-50.905-7.206-107.605,9.868-152.481,28.036c-28.819,11.669-56.073,25.689-83.17,39.472l-61.086,30.857
			c-3.524,1.722-18.64,9.318-21.146,9.789c-0.94-2.194-3.994-6.031-5.482-8.302l-17.072-25.61
			c-3.759-5.717-7.441-10.806-11.278-16.836c-16.291-25.608-33.363-52.628-49.104-78.473c-1.723-2.896-3.68-5.718-5.482-8.692
			l-32.658-52.394c-3.759-5.718-7.205-11.904-10.963-17.465c-1.802-2.662-3.681-5.561-5.482-8.379
			c-5.325-8.38-12.53-18.404-16.916-25.766c-6.657-11.042-17.308-23.573-22.947-33.912H48.275z M373.362,215.406
			c1.253-4.072,12.922-18.482,17.465-22.867c6.812-6.578,6.97-6.736,14.566-12.53c2.507-1.958,5.09-3.682,7.988-5.561
			c23.26-14.723,56.388-21.851,84.424-23.651c8.537-0.549,18.326-0.158,26.941-0.158c17.854-0.078,35.711-0.155,53.569-0.234
			c27.878-0.156,50.198,0.393,77.688-3.838c14.642-2.27,10.023-4.463,20.202,2.428c7.989,5.404,15.898,11.355,23.966,16.759
			c12.844,8.537,26.941,19.031,39.94,27.568c5.404,3.523,10.729,7.362,16.055,11.042c5.405,3.68,10.573,7.205,16.055,11.119
			c5.246,3.682,10.73,7.207,15.899,10.887c5.247,3.682,10.65,7.597,16.055,11.043c10.886,7.205,21.224,15.036,32.109,22.163
			l47.614,33.362c5.17,3.838,10.653,7.283,15.897,11.199l15.822,11.277c13.156,9.006,26.626,19.657,39.392,28.351
			c2.037,1.331,6.579,4.385,7.599,6.031c-2.667,1.723-92.258,13.077-104.006,14.722c-64.846,8.928-155.768,22.477-209.806,57.639
			c-3.212,2.116-5.874,3.995-8.692,6.188c-7.284,5.64-17.466,15.82-21.694,22.947c-5.798,9.869-5.717,9.397-9.478,20.284
			c-2.976-1.254-10.181-9.947-13.863-12.845c-0.859-0.627-1.407-1.016-2.189-1.8c-2.664-2.978-5.171-4.778-7.674-7.52l-7.363-8.145
			c-1.33-1.41-2.351-2.584-3.604-3.994l-11.199-11.904c-2.661-2.897-9.084-9.006-11.199-11.591
			c-1.173-1.409-2.349-3.053-3.523-4.386l-10.887-11.903c-1.175-1.409-2.428-2.898-3.681-4.308l-15.975-18.404
			c-0.706-0.784-1.098-1.409-1.802-2.115c-4.309-4.385-6.972-7.832-10.73-12.375c-1.252-1.487-2.271-2.662-3.523-4.072
			l-57.014-65.707c-1.333-1.409-2.35-2.663-3.525-4.072c-2.505-3.055-7.126-7.361-9.084-10.103l-5.326-6.186
			c-2.976-2.82-4.935-4.778-7.597-7.91c-1.409-1.646-1.957-2.663-3.446-4.152l-15.193-15.583c-1.489-1.802-2.115-2.507-3.68-3.916
			l-15.585-15.116c-1.332-1.252-2.428-2.584-3.759-3.838c-1.175-1.096-3.132-2.74-3.917-3.915L373.362,215.406z M2.695,339.927
			v2.742c2.114,2.82,4.15,6.892,6.265,10.337l15.586,26.08c1.096,1.879,2.036,3.602,3.21,5.403
			c6.188,9.32,12.452,21.459,18.953,31.247c3.29,4.936,9.242,15.35,12.53,20.833c2.037,3.368,4.229,7.204,6.344,10.494l4.855,7.676
			c0.548,0.86,1.096,1.802,1.645,2.662c1.097,1.802,2.115,3.603,3.133,5.17c4.308,6.5,8.38,13.86,12.765,20.596
			c5.092,7.676,11.042,18.17,16.133,26.157c6.344,9.868,12.843,21.066,19.187,31.092c2.271,3.524,4.465,7.205,6.422,10.415
			l22.712,35.87c0.547,0.94,1.096,1.722,1.723,2.584l11.355,17.775c1.097,1.725,2.271,3.604,3.368,5.248
			c5.639,8.381,12.296,19.736,18.091,27.882l15.193,22.868c0.626,0.861,1.017,1.565,1.566,2.351l5.325,7.674h0.94l96.955-48.479
			c10.024-4.698,23.417-11.591,32.814-15.742l33.362-15.271c2.036-0.86,3.603-1.565,5.482-2.429
			c2.116-0.939,3.759-1.564,5.796-2.505c7.674-3.367,14.958-6.186,22.632-9.477c10.652-4.464,23.888-9.397,35.008-13.627
			c17.699-6.812,42.682-14.879,61.086-19.893c8.459-2.271,16.995-4.541,25.767-6.655c28.351-6.815,19.187-2.272,43.698-3.604
			c28.197-1.564,55.998-3.993,82.546-14.33c10.183-3.916,23.416-10.26,31.954-16.681l9.082-7.128
			c1.724-1.097,3.449-2.036,5.091-2.896c24.984-12.846,52.786-19.502,80.275-25.218c29.052-5.951,56.309-8.771,85.755-11.514
			c9.946-0.939,20.597-1.176,30.229-2.113c13.548-1.332,49.652-1.881,63.045-1.881c10.023,0,21.771-0.704,31.482-0.312l31.326,0.312
			v-0.938c-1.332-1.565-20.441-33.989-23.574-38.924c-1.332-2.036-2.817-4.229-4.07-6.187c-3.292-5.17-13.236-19.892-17.075-24.591
			c-2.662-3.289-2.427-2.663-2.895-7.675c-0.55-6.5-0.705-13-1.331-19.501c-0.395-3.995,0.389-5.795-2.508-7.675l-90.926-65.472
			c-2.191-1.723-3.837-2.662-6.342-4.308c-2.351-1.566-3.995-2.897-6.188-4.386l-36.886-25.609
			c-4.622-3.21-7.441-4.934-12.297-8.537c-1.958-1.487-4.15-2.662-6.109-4.15l-6.187-4.385c-4.15-2.584-8.303-5.874-12.373-8.458
			l-30.856-21.38c-5.641-4.072-12.217-8.067-18.64-12.766c-9.007-6.578-21.93-14.489-30.778-21.067
			c-5.95-4.463-12.765-8.692-18.481-13c-3.212-2.428-23.417-15.742-24.515-17.464h-1.723c-3.914,2.193-34.145,5.325-41.35,5.717
			c-3.602,0.157-7.753,0.157-11.277,0.47c-3.602,0.314-7.754-0.078-11.279,0.234c-5.95,0.549-17.149,0.236-23.023-0.157
			c-7.205-0.47-16.053,0-23.494,0c-23.181,0-46.05-0.312-68.761,1.567c-29.212,2.35-63.2,10.964-84.972,26.941l-16.134,13
			c-2.036,2.037-3.916,3.916-5.952,5.952c-1.175,1.175-1.566,2.037-2.662,3.29l-5.169,6.421c-3.368,4.229-5.325,7.754-7.126,10.104
			l-10.494-7.362c-1.801-1.175-3.525-2.427-5.326-3.603c-1.801-1.175-3.289-2.192-5.248-3.368
			c-28.35-16.524-61.164-22.711-93.744-19.188c-21.851,2.349-42.603,8.693-62.886,16.524c-4.308,1.646-8.224,3.524-12.375,5.248
			l-23.808,11.199c-13.706,7.44-28.82,15.898-41.978,24.122L88.45,249.865c-3.68,2.35-7.127,4.385-10.573,6.892
			c-1.644,1.253-3.759,2.428-5.403,3.446c-1.801,1.097-3.524,2.271-5.169,3.446c-1.802,1.331-3.289,2.113-5.404,3.523
			c-1.802,1.254-3.445,2.271-5.326,3.602c-0.862,0.628-1.958,1.255-2.819,1.802c-0.94,0.626-1.566,1.175-2.506,1.801l-10.651,6.892
			c-3.523,1.958-6.656,5.247-8.771,8.692c-4.856,7.833-7.675,16.525-9.554,25.766c-0.313,1.566-0.861,6.03-1.488,7.127
			c-0.705,1.332-6.892,3.29-10.652,6.892c-8.223,7.831-4.62,5.795-7.361,9.946L2.695,339.927z"/>
		<path style="fill:#FEFEFE;" d="M194.724,608.236c-4.307-6.343-8.536-12.999-12.922-19.499
			c-8.458-12.768-17.699-26.394-25.531-39.237c-2.114-3.446-4.386-6.343-6.422-9.789c-2.115-3.525-4.229-6.264-6.342-9.867
			c-8.146-13.628-16.839-25.922-25.062-39.394c-4.229-6.812-8.301-13.155-12.53-19.812c-10.182-15.979-21.224-33.989-31.483-49.497
			c-6.265-9.554-12.53-19.971-18.875-29.368c-4.229-6.343-8.614-14.019-12.687-19.657c-4.385-6.108-8.458-13-12.765-19.656
			c-2.114-3.29-4.307-6.578-6.579-9.633c-6.5-8.927-3.837-6.5-4.15-11.042c-2.664,0.939-8.302,5.795-9.398,7.754
			c-1.723,3.132,2.271,6.891,4.855,11.355c6.109,10.807,13.314,21.145,19.344,31.874c2.115,3.759,4.151,6.891,6.344,10.495
			c8.223,14.097,17.935,28.821,25.766,42.369c4.073,7.126,8.537,14.253,12.922,21.146c18.56,29.525,36.574,60.304,55.447,89.671
			l36.417,57.169c8.928,13.314,17.699,27.646,26.94,41.195l13.47,20.519l10.965-5.402c3.681-1.802,6.97-3.445,10.573-5.327
			c7.205-3.68,14.174-6.891,21.144-10.571c10.104-5.327,21.694-10.573,31.953-15.978c3.603-1.88,6.97-3.446,10.573-5.325
			c6.97-3.68,14.488-6.97,21.537-10.572c7.126-3.603,14.489-6.58,21.616-10.103c6.969-3.524,14.565-6.735,21.849-9.867
			c7.44-3.212,14.489-6.658,21.85-9.869c29.682-12.922,60.304-24.356,92.57-34.693c16.368-5.247,32.501-9.946,49.729-14.174
			c11.12-2.743,16.29-4.074,27.569-4.074c10.102-0.078,21.222,0.156,31.09-0.469c38.14-2.35,72.363-10.965,98.599-28.899
			c3.29-2.27,6.031-4.698,9.087-7.126c2.977-2.35,6.342-4.071,10.024-5.795c37.826-17.778,85.753-26.552,127.418-31.72
			c9.476-1.174,19.107-2.035,28.821-2.897c9.71-0.861,19.421-1.957,29.213-2.426c31.011-1.646,62.179-2.037,93.271-2.115
			c6.813,0,25.922,0.078,31.639-0.314c-1.018-2.819-14.646-24.904-16.447-27.724c-4.774-7.674-8.69-12.844-13.234-19.813
			c-0.86-1.331-3.523-5.639-4.775-6.499c0.626,6.186,2.896,14.566,4.62,20.438c1.175,3.917,5.403,15.898,5.716,18.719
			c-41.193,1.097-82.467,0.234-123.66,0.234c-5.245,0-9.868,0.471-14.881,0.783c-4.935,0.313-9.944,0.313-14.878,0.626
			c-9.633,0.704-18.798,1.41-28.274,2.585c-18.011,2.271-35.477,5.248-52.393,9.32c-28.584,6.813-63.671,20.675-88.183,35.868
			c-6.733,4.151-3.288,3.366-10.103,0.86c-3.994-1.408-8.538-2.036-13.234-2.27c-24.435-1.176-55.683,4.619-71.66,20.753
			c-9.161,9.24-1.097,7.284-14.565,8.929c-24.434,2.975-59.912,11.119-82.232,18.246c-15.975,5.091-31.013,9.946-45.971,15.898
			c-13.862,5.56-29.916,12.297-43.308,18.482c-14.331,6.658-28.116,13.157-41.819,20.284c-13.393,6.969-27.725,13.549-40.725,21.146
			c-6.58,3.838-13.785,7.05-20.363,10.729c-3.21,1.802-6.735,3.68-10.102,5.403c-3.368,1.722-6.657,3.604-9.947,5.247l-20.44,10.651
			c-3.681,1.957-17.778,9.555-20.91,10.181l-26.158-38.608L194.724,608.236z"/>
		<path style="fill:#FEFEFE;" d="M268.263,551.771c40.567-22.085,84.894-42.916,128.829-59.284
			c57.248-21.302,135.251-40.882,195.868-16.056c4.775,1.958,6.891,4.229,11.276,1.645l-1.098-0.94
			c-2.035-1.408-7.203-3.759-9.238-4.619c-50.514-21.379-94.921-19.579-147.706-5.013c-24.277,6.734-46.988,15.585-69.621,25.609
			l-21.851,9.944c-14.019,6.189-38.532,18.798-53.021,26.315l-31.483,16.212c-7.283,3.603-13.861,7.206-21.145,10.572
			c-3.603,1.644-7.048,3.367-10.728,5.17c-3.369,1.722-7.677,3.289-10.652,5.167v7.831l40.411-22.476L268.263,551.771z"/>
		<path style="fill:#FEFEFE;" d="M614.339,476.04c1.879-0.077,2.663-2.113,3.759-3.289c17.308-19.97,36.808-35.477,61.087-48.399
			c68.761-36.808,155.143-51.844,233.929-57.718c18.481-1.41,36.729-2.114,55.368-3.133l-0.076-7.91
			c-2.429-0.235-21.461,3.132-25.532,3.76c-25.375,3.759-53.099,7.126-78.708,10.651c-60.693,8.223-137.521,20.127-191.479,45.892
			c-9.319,4.465-19.737,10.494-27.567,16.761l-15.428,14.33c-4.545,5.482-8.771,11.121-11.671,18.091
			c-0.938,2.194-3.604,8.852-3.522,11.121L614.339,476.04z"/>
		<path style="fill:#FEFEFE;" d="M227.617,582.159c2.819-1.176,7.049-3.996,9.946-5.561c49.339-27.96,101.811-55.214,155.378-75.105
			c30.309-11.278,61.87-21.067,96.485-26.47c32.031-5.014,71.188-5.405,102.436,5.638c2.273,0.783,2.273,0.783,5.012-0.313
			l0.394-0.156c-3.917-2.663-16.993-6.814-22.712-8.301c-93.9-24.198-224.217,37.982-307.545,82.544
			c-2.819,1.487-37.513,20.518-39.315,22.242v5.559L227.617,582.159z"/>
		<path style="fill:#FEFEFE;" d="M38.485,291.842c-0.862,0.861-2.506,3.446-2.976,4.698c-0.705,1.724,0.862,3.056,1.957,4.622
			l65.315,97.424c7.91,11.748,15.742,23.418,23.574,35.243c7.909,11.903,15.897,23.729,23.73,35.397
			c4.541,6.736,69.701,104.787,71.344,105.963c-0.469-2.273,0.47-4.778,0.079-7.128c-0.157-1.097-2.037-3.367-2.742-4.465
			C199.658,534.542,40.13,293.487,38.485,291.842z"/>
		<path style="fill:#FEFEFE;" d="M617.863,475.728c3.916,0.078,3.76-1.097,8.614-5.874c1.489-1.408,2.192-2.271,3.683-3.603
			c1.252-1.097,2.347-2.192,3.681-3.29c2.663-2.191,4.854-4.229,7.676-6.501c76.198-62.104,203.072-79.332,300.339-85.126
			c3.679-0.236,25.609-0.862,27.02-1.41c0.155-1.88,0.078-3.054-0.315-4.856c-68.057,2.271-141.674,9.869-203.383,27.254
			c-27.805,7.832-58.426,18.405-83.095,32.265c-26.001,14.566-42.367,26.393-61.086,47.382
			C619.978,473.065,618.802,474.317,617.863,475.728z"/>
		<path style="fill:#FEFEFE;" d="M227.461,588.579c3.132-1.566,6.499-3.68,9.631-5.481c21.852-12.61,46.128-25.531,68.683-36.729
			c54.273-26.94,116.299-52.942,177.307-64.14c26.627-4.856,55.918-7.05,83.328-3.446c4.464,0.626,8.613,1.252,13.078,2.191
			c3.683,0.782,8.692,2.584,10.81,1.646l0.937-0.549c-17.227-5.247-32.187-8.144-51.844-8.849
			c-87.947-3.056-197.746,47.929-273.321,89.278c-3.055,1.646-36.573,20.048-38.688,21.851L227.461,588.579z"/>
		<path style="fill:#FEFEFE;" d="M650.365,475.57c2.738,0.626,3.604-1.253,7.439-4.464c15.428-12.844,36.81-22.554,56.073-28.897
			c74.4-24.357,183.57-28.508,262.045-28.978c-0.155-1.958-1.253-5.169-1.253-5.169c0-0.155-0.078-0.155-0.156-0.235
			c-8.932-0.234-36.418,1.253-47.305,1.724c-64.139,2.506-158.353,6.657-215.914,28.818c-22.478,8.615-36.731,16.995-54.431,31.171
			L650.365,475.57z"/>
		<path style="fill:#FEFEFE;" d="M226.051,637.685c6.343-2.741,12.922-7.205,18.875-10.73
			c18.246-10.807,38.218-22.556,56.622-32.657c60.225-32.893,141.438-75.888,207.771-89.201c13.941-2.819,39.47-6.344,53.413-2.584
			c0.156-1.019-0.786,0,0.547-1.019c-0.627-0.784,0.627-0.312-1.333-0.939l-4.617-0.941c-6.814-1.331-13.863-1.644-20.832-1.486
			c-9.244,0.155-18.171,1.33-27.02,2.975c-66.021,11.984-150.367,56.623-208.321,88.576c-18.795,10.338-38.061,21.852-56.465,32.814
			c-3.211,1.879-6.108,3.602-9.32,5.56c-2.741,1.646-6.343,4.151-9.163,5.482l-0.234,4.151H226.051z"/>
		<path style="fill:#FEFEFE;" d="M150.633,509.089l-37.356-54.585c-7.911-11.748-17.151-24.592-24.905-36.26
			c-4.072-6.188-8.223-12.139-12.373-18.091l-49.574-72.207c-0.94,3.21-0.079,3.446,1.41,5.639l168.065,252.176
			c1.487,2.27,23.26,35.398,24.434,36.417c0.392-0.862,0.313-2.508,0.392-3.524c0.236-6.265,0.548-6.422-1.801-9.868
			c-2.115-3.131-4.072-6.03-6.186-9.007c-4.229-6.031-8.146-11.981-12.375-18.011c-8.38-12.061-16.447-24.278-24.904-36.26
			c-8.458-12.141-16.368-24.123-24.903-36.261L150.633,509.089z"/>
		<path style="fill:#FEFEFE;" d="M226.364,631.498c1.488-0.314,16.367-9.634,18.874-11.121
			c29.211-17.777,64.766-37.904,94.996-53.803c49.731-26.002,115.36-57.562,170.651-67.353c15.348-2.741,39.861-4.62,53.802,0.783
			c0.627-1.253,1.096-0.706,1.643-2.35c-11.745-1.956-12.686-3.054-26.313-3.758c-25.45-1.332-53.097,4.934-76.356,12.606
			c-29.369,9.712-57.72,22.556-83.641,35.712c-26.628,13.549-52.394,27.177-77.768,41.588c-3.759,2.191-71.816,40.566-75.653,43.385
			l-0.157,4.387L226.364,631.498z"/>
		<path style="fill:#FEFEFE;" d="M226.521,624.919c2.74-1.019,7.126-3.996,9.79-5.562c28.819-16.368,56.621-32.891,86.068-48.789
			c6.579-3.604,13-7.049,19.501-10.573c12.921-7.05,26.157-13.785,39.393-20.439c46.206-22.948,107.84-50.984,162.349-47.226
			c7.753,0.549,15.035,1.724,22.477,3.603c0.703,0.157,0.938,0.312,1.565,0.234l1.018-0.392c-0.549-0.86,0.078-0.157-0.549-0.548
			l-2.349-0.626c-1.096-0.234-1.959-0.471-2.976-0.627c-6.502-1.331-12.922-2.192-19.581-2.585
			c-26.704-1.722-52.861,3.291-77.765,10.495c-70.484,20.44-155.144,68.918-220.302,105.725l-18.718,10.73v6.736L226.521,624.919z"
			/>
		<path style="fill:#FEFEFE;" d="M623.502,475.023c1.644,0.079,1.803,0.079,2.74-0.785l5.561-5.012
			c72.756-63.436,190.7-83.406,285.069-90.924c8.614-0.706,17.308-1.253,25.923-1.723c3.915-0.234,24.827-0.783,26.549-1.487
			c0.078-2.271-0.313-2.507-0.313-3.132c0-0.158-0.077-0.158-0.077-0.313c-4.23-0.235-9.636,0.313-13.86,0.469
			c-59.132,2.664-129.223,10.337-184.748,25.531c-44.405,12.14-80.823,26.471-116.77,51.531
			c-9.083,6.345-22.79,17.778-29.994,25.688L623.502,475.023z"/>
		<path style="fill:#FEFEFE;" d="M99.963,414.249c16.289,23.182,32.266,46.913,48.399,70.329
			c8.144,11.747,15.897,23.415,24.121,35.084c0.861,1.175,46.989,68.996,48.712,70.405c-0.392-3.055,0.547-4.699-1.019-6.97
			l-20.988-30.621c-16.132-23.182-31.874-47.067-48.085-70.327l-47.929-70.093c-4.152-5.951-70.171-103.297-71.971-104.943
			c-1.881,6.031-2.038,4.229,2.113,10.103c2.114,2.976,3.994,5.875,6.03,8.85C59.708,355.042,79.679,385.351,99.963,414.249z"/>
		<path style="fill:#FEFEFE;" d="M219.942,633.925c0.078-2.35,0.47-5.013,0.47-7.361c0-2.193-7.363-12.218-8.85-14.332
			L100.041,444.948c-8.379-12.529-16.446-24.746-24.826-37.278c-0.783-1.253-48.477-73.303-49.652-74.242
			c-0.627,1.566,4.151,7.752,5.247,9.241c2.192,3.055,3.994,6.188,6.108,9.398l36.574,56.309
			c9.633,15.507,20.674,31.797,30.073,47.303l12.061,19.031c2.036,3.054,3.993,6.186,6.03,9.476
			c7.91,12.923,16.133,24.903,24.122,37.748c19.5,31.562,40.958,62.651,61.556,93.588c2.115,3.21,4.072,6.266,6.187,9.318
			c1.174,1.646,5.247,8.303,6.343,9.164L219.942,633.925z"/>
		<path style="fill:#FEFEFE;" d="M199.58,569.941c-4.229-5.873-8.301-11.826-12.374-17.777
			c-20.127-29.447-40.958-59.131-61.4-88.419c-16.524-23.651-32.657-47.225-49.182-70.875
			c-8.224-11.827-16.446-23.652-24.669-35.556l-24.59-35.242c-1.097,4.385-0.627,3.524,3.838,10.024l67.271,98.052
			c7.911,11.746,16.838,24.042,24.435,35.712c7.909,12.139,16.524,23.572,24.435,35.713c7.439,11.354,16.759,24.275,24.513,35.71
			c7.597,11.277,17.229,24.67,24.434,35.713c3.994,6.106,8.067,11.824,12.218,17.854c1.801,2.585,11.121,16.683,12.453,17.62
			c-0.549-2.271,0.312-5.011-0.157-7.359c-0.235-1.254-2.114-3.525-2.977-4.7l-18.404-26.549L199.58,569.941z"/>
		<path style="fill:#FEFEFE;" d="M382.055,557.801c5.796-2.897,11.747-5.324,17.779-7.986
			c48.869-21.929,106.744-38.923,160.076-45.972c-2.428-1.331-10.886-1.175-14.255-1.175c-38.06-0.078-84.892,16.917-119.273,31.325
			c-38.687,16.29-64.062,29.839-100.4,48.714c-11.042,5.716-21.537,11.902-32.188,17.776c-5.481,2.977-10.495,5.951-15.82,9.007
			l-15.427,9.005l119.508-60.614V557.801z"/>
		<path style="fill:#FEFEFE;" d="M227.381,595.706c6.266-3.522,12.609-7.203,19.031-10.886c6.344-3.523,12.845-7.127,19.344-10.729
			c35.791-19.971,85.129-43.937,121.625-58.581c54.82-21.929,131.805-45.734,193.126-30.62c4.701,1.174,3.054-0.157,5.639-0.472
			c-2.035-1.722-21.066-4.228-25.296-4.699c-27.646-2.896-55.447-0.155-82.31,4.936c-32.735,6.267-62.417,16.367-91.708,27.332
			c-42.604,15.898-81.526,36.184-121.389,57.171l-38.219,21.301l0.079,5.171L227.381,595.706z"/>
		<path style="fill:#FEFEFE;" d="M160.97,493.817c3.916,5.953,7.988,11.592,11.982,17.465
			c11.826,17.543,24.434,35.243,36.025,52.628c1.645,2.428,10.808,16.212,12.061,17.387c0.313-3.367-0.313-3.76-1.723-5.874
			l-44.093-65.707c-15.819-23.415-31.326-46.677-46.988-70.092c-7.91-11.746-15.585-23.26-23.496-35.007
			c-7.988-11.825-69.387-104.16-70.562-104.943c-0.704,1.018-2.193,4.385-2.036,5.482c0.156,0.862,19.971,29.524,20.833,30.778
			c8.144,11.59,16.055,23.338,24.042,35.163c15.898,23.495,31.954,46.677,47.929,70.091c8.067,11.826,15.898,23.419,24.043,35.166
			C152.982,482.149,157.133,488.023,160.97,493.817z"/>
		<path style="fill:#FEFEFE;" d="M174.519,525.534c-16.447-23.415-32.031-46.831-48.399-70.325
			c-16.289-23.339-32.031-46.989-48.32-70.328l-42.447-61.712c-1.019-1.567-1.958-2.741-2.976-4.308
			c-0.47-0.704-0.94-1.41-1.489-2.192c-0.313-0.471-0.391-0.705-0.783-1.175l-0.861-0.862c-0.783,1.489-1.488,4.621-0.783,5.874
			c0.861,1.488,2.193,3.055,3.133,4.464c13.939,20.441,28.585,40.959,42.681,61.477c8.067,11.746,16.212,23.496,24.513,35.321
			c16.369,23.338,32.5,47.224,48.869,70.484c8.301,11.746,16.368,23.417,24.356,35.163c1.879,2.739,48.007,69.621,49.104,70.326
			c-0.548-3.522,0.783-3.445-1.331-6.343c-6.814-9.477-14.254-20.912-21.146-30.779
			C190.417,548.953,182.664,537.127,174.519,525.534z"/>
		<path style="fill:#FEFEFE;" d="M227.068,602.521c1.097-1.097,7.597-4.465,9.555-5.639c32.345-18.719,74.478-41.429,107.685-56.936
			c64.688-30.23,157.726-69.39,231.814-51.689c1.956,0.471,3.524-0.078,4.778-1.565c-14.727-4.463-39.004-5.403-55.293-4.542
			c-61.869,3.366-129.378,29.448-184.276,55.134c-13.47,6.344-27.253,12.923-40.176,19.734
			c-23.886,12.532-44.639,23.887-67.82,37.044c-6.97,3.994-6.657,2.663-6.423,8.459H227.068z"/>
		<path style="fill:#FEFEFE;" d="M658.038,477.607c1.804,0,2.9,0.703,4.624-0.235l11.04-6.423c5.169-2.896,10.262-5.481,15.584-7.91
			c5.405-2.507,10.573-4.934,16.289-7.205c31.954-12.606,56.779-18.718,93.04-23.65c27.255-3.682,60.771-5.481,88.343-5.404
			c30.854,0.157,62.258,0.861,93.034,0.235c0.161-1.645-1.408-6.03-1.876-7.361c-30.857,0.94-61.244,1.253-91.944,3.054
			c-29.289,1.725-57.641,4.308-86.226,8.067c-41.821,5.403-91.394,16.054-127.889,37.199c-1.88,1.098-12.844,7.597-14.02,9.712
			V477.607z"/>
		<path style="fill:#FEFEFE;" d="M646.997,475.023c1.41,0.234,1.488-0.079,2.271-0.862l4.934-4.385
			c2.352-2.036,4.386-3.682,6.737-5.483c35.866-27.801,81.683-39.55,127.497-45.893c60.38-8.303,123.738-10.024,185.763-12.217
			c0.157-1.959-0.549-3.916-1.018-5.718c-5.951-0.312-39.627,1.487-48.166,1.88c-43.228,2.115-95.935,5.717-137.283,13.079
			c-28.351,5.089-54.273,11.199-79.022,21.145c-11.982,4.856-23.104,10.494-33.361,16.917c-8.538,5.325-21.459,14.566-28.271,21.458
			L646.997,475.023z"/>
		<path style="fill:#FEFEFE;" d="M654.436,476.512c2.35,0.469,3.759-1.488,7.598-4.153c37.044-25.53,91.866-36.964,135.878-42.993
			c58.031-7.988,119.587-10.729,179.5-11.356l-0.627-3.21c-7.127,0.704-16.603,0.312-23.966,0.47
			c-7.75,0.156-15.507,0.312-23.181,0.547c-45.266,1.489-89.124,3.917-133.843,10.104c-27.252,3.758-54.037,9.161-78.783,17.071
			c-11.904,3.761-23.809,8.537-34.068,13.862c-5.952,3.055-26.158,15.193-28.428,19.659H654.436z"/>
		<path style="fill:#FEFEFE;" d="M226.834,609.178c1.801-0.627,35.006-19.814,38.453-21.695l38.531-20.988
			c25.766-13.939,52.315-26.705,79.882-39.156c48.399-21.852,111.755-44.483,167.361-39.628c6.109,0.547,13.549,1.644,19.5,2.976
			c5.562,1.253,2.977,0,5.247-0.392c-0.549-0.783,0.627-0.234-1.41-0.861l-4.62-0.939c-2.036-0.393-4.073-0.706-6.188-1.017
			c-4.542-0.707-8.848-1.176-13.469-1.489c-9.557-0.628-19.268-0.628-28.744,0.077c-71.344,5.013-156.708,44.015-218.421,76.436
			c-13,6.815-25.687,13.785-38.296,20.598c-10.573,5.717-27.646,15.194-37.436,21.301l-0.156,4.856L226.834,609.178z"/>
		<path style="fill:#FEFEFE;" d="M628.359,474.865c4.306-1.175,3.759-1.723,8.3-5.716c2.271-2.038,4.935-4.149,7.441-6.11
			c38.529-29.681,83.092-46.754,131.646-58.422c57.955-13.939,133.999-21.772,194.221-23.104c0-1.801-0.232-2.662-0.311-4.385
			c-26.94,0.235-74.793,4.385-102.043,7.91c-73.148,9.318-147.003,26.393-208.637,65.863c-5.17,3.367-28.896,20.44-30.698,24.043
			L628.359,474.865z"/>
		<path style="fill:#FEFEFE;" d="M226.677,616.225c2.35-0.783,7.205-4.071,9.711-5.481c22.556-12.765,43.778-24.904,66.881-37.67
			c10.573-5.795,28.664-15.742,39.079-20.754c13.393-6.5,26.236-13.391,39.862-19.656c42.292-19.345,88.027-38.846,136.582-42.917
			c15.979-1.331,32.423-0.313,48.008,3.21c3.525,0.783,3.604,1.411,5.012-0.391c-72.361-18.562-170.022,27.175-230.794,56.542
			c-13.235,6.423-25.845,13.393-38.845,20.051c-6.969,3.523-74.792,40.568-75.418,42.37L226.677,616.225z"/>
		<path style="fill:#FEFEFE;" d="M633.294,474.395c3.835,0.315,2.895-0.156,5.01-1.955c1.176-0.941,2.428-2.038,3.604-3.056
			c36.65-32.188,89.904-50.827,137.521-61.557c29.682-6.657,60.613-10.963,91.863-14.252c16.213-1.724,32.737-3.056,49.026-4.073
			c5.872-0.393,49.025-2.115,50.437-2.741c0-3.21-0.158-3.367-1.176-3.603c-0.393-0.079-0.549-0.079-0.94-0.079l-23.808,1.097
			c-54.036,2.742-114.419,9.085-166.031,21.381c-49.023,11.668-91.548,27.646-130.862,56.622c-2.742,2.036-5.091,3.916-7.597,5.952
			c-2.037,1.646-5.639,4.464-6.973,6.187L633.294,474.395z"/>
		<path style="fill:#FEFEFE;" d="M638.85,474.476c2.586,0.155,3.293-1.099,4.623-2.194c9.321-7.988,14.722-12.374,25.843-19.422
			c33.676-21.381,72.914-33.755,113.559-41.821c54.273-10.729,108.702-14.41,163.994-17.15c3.445-0.157,23.337-0.705,24.746-1.096
			c0-1.49,0-2.742-0.704-3.995c-7.363-0.392-17.542,0.627-25.141,1.018c-52,2.429-114.341,8.146-163.677,19.188
			c-45.581,10.182-92.49,25.845-129.145,53.725c-1.486,1.176-13.079,9.947-14.174,11.825L638.85,474.476z"/>
		<path style="fill:#FEFEFE;" d="M643.158,474.71c2.35,0.234,2.821-1.096,4.23-2.429l10.339-8.536
			c35.476-27.959,82.465-41.741,127.653-49.496c52.784-9.085,133.136-14.41,187.409-15.427c-0.312-1.725-0.394-2.429-0.783-4.23
			c-2.428-0.391-9.24,0.236-12.063,0.313c-57.716,2.428-118.487,6.265-174.641,17.229c-28.432,5.561-54.744,13.001-79.256,23.182
			c-11.981,5.012-23.573,11.042-33.831,17.465c-4.857,3.053-25.61,17.308-29.058,21.85V474.71z"/>
		<path style="fill:#FEFEFE;" d="M166.609,480.896c-13.706-21.302-27.02-44.168-40.49-65.314c-2.741-4.229-5.403-8.772-8.144-13
			c-2.742-4.308-5.169-8.615-7.911-12.924l-16.446-25.843c-3.368-5.168-48.164-73.539-50.828-75.966
			c-1.331,0.391-2.271,1.175-3.132,2.427c2.35,4.23,13.314,20.363,16.837,25.609l92.804,139.949
			c2.898,4.387,5.718,8.381,8.458,12.687c4.073,6.267,14.174,20.755,16.916,25.533c-0.469-1.488-3.054-5.246-3.994-6.657
			C169.351,485.282,168.018,483.01,166.609,480.896z"/>
	</g>
</g>
<g>
	<g>
		<path style="fill:#48C0D8;" d="M555.396,287.969l133.76-58.979c16.937-7.468,36.719,0.207,44.187,17.143l0,0
			c7.467,16.935-0.209,36.718-17.146,44.186l-133.758,58.98c-16.936,7.467-36.72-0.208-44.187-17.142l0,0
			C530.786,315.22,538.462,295.437,555.396,287.969z"/>
		
			<ellipse transform="matrix(-0.4035 -0.915 0.915 -0.4035 693.275 935.9531)" style="fill:#48C0D8;" cx="651.742" cy="241.981" rx="46.409" ry="49.372"/>
		
			<ellipse transform="matrix(-0.4034 -0.915 0.915 -0.4034 600.179 950.0341)" style="fill:#48C0D8;" cx="609.786" cy="279.368" rx="40.979" ry="43.595"/>
	</g>
	<path style="fill:none;stroke:#333333;stroke-width:9;" d="M634.394,206.394c-16.418,7.246-27.851,22.295-29.853,39.306
		c-3.4,0.64-6.726,1.662-9.908,3.048c-16.718,7.397-27.321,23.812-26.555,41.113l-11.305,4.985
		c-16.988,7.491-24.634,27.199-17.143,44.187c7.491,16.989,27.197,24.635,44.186,17.144l133.762-58.981
		c16.988-7.491,24.635-27.198,17.144-44.186c-6.136-13.917-20.471-21.559-34.795-19.751c-0.469-1.468-1.015-2.91-1.635-4.32
		c-10.343-23.451-38.949-33.545-63.9-22.543L634.394,206.394z"/>
</g>
<g>
	<g>
		<path style="fill:#48C0D8;" d="M322.274,360.571L322.274,360.571c-2.427-3.904-7.604-5.111-11.507-2.685l-47.122,29.292
			c-3.904,2.427-5.112,7.604-2.686,11.509l0,0c2.427,3.904,7.604,5.11,11.508,2.685c-3.904,2.426-5.112,7.605-2.686,11.508
			c2.426,3.903,7.605,5.113,11.509,2.687l3.938-2.449c-3.904,2.428-5.112,7.604-2.686,11.509c2.426,3.902,7.605,5.11,11.508,2.685
			l39.244-24.396c3.903-2.427,5.111-7.605,2.686-11.507c-2.427-3.904-7.604-5.111-11.508-2.685l3.939-2.449
			c3.902-2.426,5.111-7.605,2.684-11.509c-2.425-3.902-7.605-5.111-11.508-2.686C323.492,369.652,324.701,364.475,322.274,360.571z"
			/>
	</g>
	<path style="fill:#333333;" d="M200.813,241.154c-35.63,22.149-46.597,69.158-24.448,104.787
		c12.308,19.798,32.477,32.606,55.564,35.37l5.117,8.233c4.127,6.638,11.229,10.316,18.521,10.401
		c-0.349,2.723,0.197,5.577,1.756,8.086c1.702,2.736,4.309,4.564,7.194,5.367c-0.558,2.939-0.073,6.088,1.629,8.826
		c2.415,3.883,6.648,5.954,10.92,5.815c0.096,2.037,0.691,4.079,1.842,5.931c3.594,5.78,11.216,7.565,17.004,3.986
		c0.282,1.422,0.804,2.816,1.612,4.117c8.897,14.312,21.82,10.441,31.095,4.677c13.493-8.388,16.712-18.464,9.568-29.955
		c-0.808-1.302-1.829-2.386-2.978-3.268c5.77-3.606,7.542-11.231,3.948-17.013c-1.15-1.85-2.717-3.288-4.5-4.274
		c2.014-3.772,2.03-8.483-0.385-12.368c-1.701-2.736-4.309-4.565-7.194-5.366c0.559-2.942,0.073-6.089-1.628-8.827
		c-1.559-2.508-3.877-4.26-6.474-5.154c3.152-6.575,2.995-14.572-1.131-21.209l-5.118-8.233c7.741-21.927,5.182-45.682-7.125-65.481
		C283.454,229.973,236.444,219.005,200.813,241.154z M327.461,384.107c1.266,2.035,0.64,4.721-1.396,5.985l-3.938,2.448
		l-39.244,24.395l-3.938,2.451c-2.035,1.264-4.721,0.637-5.985-1.398c-1.266-2.035-0.638-4.718,1.396-5.983l47.122-29.293
		C323.513,381.448,326.196,382.073,327.461,384.107z M324.386,439.938c-13.519,8.405-17.93,1.31-20.048-2.099
		c-1.266-2.036-0.639-4.72,1.396-5.984l19.657-12.222c2.036-1.264,4.719-0.637,5.985,1.398
		C333.817,424.96,337.905,431.535,324.386,439.938z M330.95,406.734l-9.794,6.088l-19.657,12.219l-9.793,6.089
		c-2.035,1.265-4.72,0.639-5.983-1.396c-1.265-2.035-0.639-4.72,1.396-5.984l39.244-24.396c2.035-1.265,4.719-0.638,5.984,1.397
		C333.609,402.784,332.984,405.469,330.95,406.734z M312.654,368.519c2.035-1.266,4.719-0.639,5.984,1.397
		c1.266,2.036,0.639,4.717-1.396,5.983l-47.121,29.292c-2.035,1.265-4.719,0.641-5.984-1.395s-0.638-4.721,1.396-5.984l1.896-1.18
		l43.328-26.934L312.654,368.519z M237.752,326.423c-4.387,1.615-8.129,2.169-9.308,0.461c-0.713-1.035-0.663-1.667-0.562-2.052
		c0.247-0.947,1.282-2.009,2.913-3.023c0.489-0.304,1.033-0.604,1.624-0.895c0.834-0.41,1.842-0.109,2.345,0.7L237.752,326.423z
		 M292.348,371.696l-14.981,9.312l-32.537-52.341c3.497-1.713,6.386-3.501,7.685-4.338c1.324-0.792,4.209-2.593,7.296-4.974
		L292.348,371.696z M304.541,330.106c-0.447,1.173-0.32,2.484,0.341,3.549l6.153,9.897c4.085,6.573,2.062,15.247-4.512,19.333
		l-10.075,6.263l-32.901-52.926c4.848-4.456,8.78-9.951,6.133-14.7c-1.453-2.609-3.431-3.501-4.832-3.79
		c-2.737-0.563-5.908,0.526-9.438,3.236c-2.71,2.084-3.385,5.861-1.567,8.786l3.388,5.45c-2.332,1.844-4.868,3.59-7.23,5.003
		c-0.014,0.01-0.03,0.018-0.043,0.028c-0.008,0.002-0.014,0.007-0.02,0.011c-2.314,1.491-5.001,2.994-7.688,4.271l-3.388-5.452
		c-1.818-2.924-5.503-3.992-8.572-2.482c-3.993,1.961-6.374,4.327-7.079,7.03c-0.36,1.385-0.434,3.552,1.261,6.011
		c3.086,4.476,9.753,3.382,15.896,1.006l32.901,52.926l-10.075,6.263c-6.574,4.087-15.247,2.063-19.333-4.511l-6.152-9.896
		c-0.662-1.063-1.783-1.757-3.031-1.875c-21.403-2.009-40.173-13.61-51.499-31.83c-19.814-31.874-10.002-73.925,21.871-93.739
		c31.873-19.814,73.926-10.002,93.74,21.871C310.116,288.059,312.212,310.026,304.541,330.106z M260.932,312.015l-2.99-4.81
		c-0.502-0.808-0.326-1.846,0.409-2.411c0.524-0.402,1.033-0.757,1.522-1.062c1.63-1.014,3.043-1.472,4-1.273
		c0.39,0.08,0.979,0.313,1.591,1.413C266.473,305.684,264.322,308.795,260.932,312.015z"/>
</g>
</svg>
